<svg width="18" height="21" viewBox="0 0 18 21" fill="none" xmlns="http://www.w3.org/2000/svg">
<g clip-path="url(#clip0_374_681)">
<path d="M9.00915 20.9999C6.51767 20.9653 4.44145 20.7578 2.76241 20.3253C1.10143 19.9101 0.234827 19.3739 0.180664 18.7339C0.234827 18.0938 1.10143 17.5576 2.76241 17.1251C4.42339 16.6927 6.51767 16.4851 9.00915 16.4851C11.5006 16.4851 13.5768 16.6927 15.2378 17.1251C16.8988 17.5576 17.7654 18.0938 17.8557 18.7339C17.7654 19.3739 16.8988 19.8929 15.2378 20.3253C13.5768 20.7405 11.5187 20.9653 9.00915 20.9999Z" fill="#A06C33"/>
<path d="M10.1465 12.7487V12.8352L10.4534 13.6655L10.9228 15.1704L11.2659 16.831C11.3561 17.1943 11.3922 17.5057 11.3922 17.7824V18.163L11.3561 18.4571L11.32 18.6992C11.0853 19.3393 10.6701 19.789 10.0743 20.0658C9.4785 20.3426 8.8466 20.3772 8.1786 20.1523C7.42032 19.8755 6.91481 19.3912 6.66205 18.6992L6.57178 18.163V17.7824C6.57178 17.5057 6.60789 17.177 6.69816 16.831L7.09535 15.1704L7.52865 13.6655L7.87168 12.7487C7.98 12.4373 8.19665 12.2297 8.50357 12.1086C8.81049 11.9876 9.11741 11.9876 9.44239 12.1086C9.76736 12.2297 9.98401 12.4546 10.1465 12.7487Z" fill="#FFD469"/>
<path d="M17.8014 17.5923C18.0542 18.0593 18.0542 18.4918 17.8014 18.8896C17.8376 18.8377 17.8376 18.7858 17.8376 18.7166C17.7473 18.1285 16.8807 17.6614 15.2197 17.2982C13.5587 16.9349 11.5005 16.7619 8.99102 16.7619C6.48149 16.7619 4.42331 16.9349 2.74428 17.2982C1.08329 17.6614 0.216694 18.1285 0.162531 18.7166C0.162531 18.7685 0.162531 18.8377 0.19864 18.9242C-0.0902268 18.5264 -0.108281 18.0939 0.162531 17.5923C0.830535 16.5371 1.44438 15.1532 2.04016 13.4234C2.6179 11.6936 2.92482 9.65239 2.96093 7.24794C2.99704 5.81219 3.46644 4.56672 4.38721 3.54613C5.30797 2.52554 6.49954 1.8682 7.96193 1.59143V1.00329C7.96193 0.726524 8.07025 0.484349 8.26885 0.294069C8.46745 0.103789 8.7202 0 9.00907 0C9.29794 0 9.5507 0.103789 9.74929 0.294069C9.94789 0.484349 10.0562 0.726524 10.0562 1.00329V1.59143C10.3451 1.64333 10.6159 1.71252 10.8867 1.79901C12.1685 2.19687 13.1615 2.8715 13.8837 3.8402C14.6059 4.8089 14.985 5.93328 15.0211 7.21334C15.0572 9.5832 15.3461 11.6244 15.9419 13.3888C16.5196 15.1359 17.1515 16.5371 17.8195 17.5923H17.8014Z" fill="#FFB636"/>
<path d="M11.9697 3.07908L12.0058 3.11367L12.1863 3.23476C12.2946 3.32125 12.403 3.40774 12.5113 3.51153C12.6196 3.61532 12.7099 3.71911 12.8002 3.8575L13.1071 4.27265L13.5404 5.27595L13.6668 5.77759C13.8473 6.46952 13.9376 7.09226 13.9737 7.6112V8.49341C13.9376 8.77018 13.8293 8.99506 13.6307 9.18534C13.4321 9.35832 13.1793 9.44481 12.8904 9.42751C12.6016 9.42751 12.3669 9.32372 12.1683 9.13344C11.9877 8.96046 11.8794 8.71829 11.8794 8.44152L11.8433 7.73229C11.8433 7.54201 11.8072 7.31713 11.753 7.05766L11.7169 6.6425L11.5003 5.89868L11.2836 5.44893L10.9406 5.03377L10.76 4.86079C10.5073 4.68781 10.3267 4.48023 10.2545 4.22076C10.1823 3.96129 10.2365 3.70181 10.399 3.42504C10.5795 3.16557 10.7962 3.00988 11.1031 2.94069C11.3919 2.8888 11.6628 2.94069 11.9336 3.06178H11.9697V3.07908Z" fill="#FFD469"/>
</g>
<defs>
<clipPath id="clip0_374_681">
<rect width="18" height="21" fill="white"/>
</clipPath>
</defs>
</svg>
