<svg width="20" height="20" viewBox="0 0 20 20" fill="none" xmlns="http://www.w3.org/2000/svg">
<g clip-path="url(#clip0_374_690)">
<path d="M20 19.406C20 19.571 19.9503 19.703 19.8343 19.802C19.7349 19.901 19.6023 19.967 19.4366 20H0.59652C0.43082 19.967 0.29826 19.901 0.18227 19.802C0.06628 19.703 0 19.571 0 19.406V2.8218C0 2.65678 0.06628 2.52477 0.18227 2.42576C0.29826 2.32675 0.44739 2.26074 0.59652 2.26074H19.4366C19.6023 2.26074 19.7349 2.31025 19.8343 2.42576C19.9337 2.52477 20 2.65678 20 2.8218V19.406Z" fill="#DCE2E2"/>
<path d="M0 10.1816V2.7889C0 2.62388 0.06628 2.50837 0.18227 2.40936C0.29826 2.31035 0.44739 2.27734 0.59652 2.27734H19.4366C19.6023 2.27734 19.7349 2.32685 19.8343 2.40936C19.9337 2.50837 20 2.62388 20 2.7889V10.1816H0Z" fill="#0096D1"/>
<path d="M4.98774 4.09245C4.98774 4.32347 4.90489 4.53799 4.72262 4.70301C4.54035 4.86803 4.34151 4.96704 4.07639 4.96704C3.81127 4.96704 3.61243 4.88453 3.43016 4.70301C3.26446 4.53799 3.16504 4.32347 3.16504 4.05945C3.16504 3.79542 3.24789 3.5974 3.43016 3.41588C3.59586 3.25087 3.81127 3.15186 4.07639 3.15186C4.34151 3.15186 4.54035 3.23436 4.72262 3.41588C4.88832 3.5809 4.98774 3.81192 4.98774 4.07595V4.09245ZM15.4103 3.18486C15.1452 3.18486 14.9297 3.26737 14.7475 3.44889C14.5818 3.6139 14.4824 3.82842 14.4824 4.09245C14.4824 4.35648 14.5652 4.5545 14.7475 4.73601C14.9132 4.90103 15.1452 5.00004 15.4103 5.00004C15.6754 5.00004 15.8908 4.91753 16.0731 4.73601C16.2388 4.571 16.3382 4.35648 16.3382 4.09245C16.3382 3.82842 16.2553 3.6304 16.0731 3.44889C15.9074 3.28387 15.6754 3.18486 15.4103 3.18486Z" fill="white"/>
<path d="M6.66124 2.26063H5.78303C5.74989 1.86459 5.61733 1.53455 5.36878 1.27053C5.12023 1.0065 4.78883 0.874488 4.39115 0.874488C3.99347 0.874488 3.66207 1.0065 3.41352 1.27053C3.16497 1.53455 3.03241 1.86459 3.03241 2.24412C3.03241 2.62366 3.16497 2.9537 3.41352 3.21772C3.66207 3.48175 3.99347 3.61376 4.39115 3.61376C4.65627 3.64676 4.78883 3.79528 4.78883 4.07581C4.78883 4.35634 4.65627 4.50485 4.39115 4.53785C3.74492 4.50485 3.21468 4.29033 2.76729 3.86129C2.33647 3.43224 2.10449 2.90419 2.10449 2.24412C2.10449 1.58406 2.3199 1.05601 2.76729 0.626963C3.19811 0.19792 3.74492 -0.0166016 4.39115 -0.0166016C5.03738 -0.0166016 5.56762 0.19792 5.98187 0.626963C6.41269 1.05601 6.6281 1.60056 6.66124 2.26063ZM16.3713 0.0329034C16.189 -9.99123e-05 15.9902 -9.99123e-05 15.7747 -9.99123e-05C15.1285 -9.99123e-05 14.5983 0.214422 14.184 0.643464C13.7532 1.07251 13.5378 1.60056 13.5378 2.26063C13.5378 2.92069 13.7532 3.44875 14.184 3.87779C14.6149 4.30683 15.1451 4.52135 15.7747 4.55436C16.0399 4.52135 16.1724 4.37284 16.1724 4.09231C16.1724 3.81178 16.0399 3.66327 15.7747 3.63026C15.3936 3.63026 15.0788 3.49825 14.8137 3.23422C14.5486 2.9702 14.416 2.64016 14.416 2.26063C14.416 1.88109 14.5486 1.55106 14.8137 1.28703C15.0788 1.023 15.3936 0.890989 15.7747 0.890989C15.9073 0.890989 16.0233 0.890989 16.1393 0.923993C16.4541 1.0065 16.7192 1.17152 16.9015 1.41904C17.0838 1.66657 17.1832 1.9636 17.1832 2.27713H18.0614C18.0614 1.74908 17.9123 1.28703 17.5975 0.890989C17.2992 0.49495 16.8849 0.214422 16.3878 0.049405L16.3713 0.0329034Z" fill="#BFBFBB"/>
<path d="M2.51841 8.06919H1.83904L1.72305 8.58074H1.15967L1.83904 6.27051H2.51841L3.19778 8.58074H2.6344L2.51841 8.06919ZM2.40242 7.67315L2.17044 6.68305L1.93846 7.67315H2.41899H2.40242Z" fill="white"/>
<path d="M5.10353 7.83826C5.10353 8.06929 5.03725 8.26731 4.88812 8.41582C4.73899 8.56434 4.50701 8.63034 4.19218 8.63034C3.61222 8.59734 3.31396 8.33331 3.31396 7.83826V6.28711H3.82763V7.80526C3.82763 8.10229 3.94363 8.2343 4.19218 8.2343C4.44073 8.2343 4.55672 8.08579 4.55672 7.80526V6.28711H5.1201V7.83826H5.10353Z" fill="white"/>
<path d="M7.2576 6.51822L6.97591 6.79875C6.84335 6.66674 6.67765 6.61723 6.49538 6.63373C6.14741 6.60073 5.96514 6.86476 5.94857 7.42581C5.94857 7.98687 6.08113 8.25089 6.41253 8.21789C6.54509 8.21789 6.64451 8.18489 6.72736 8.13538V7.62383H6.44567L6.36282 7.2608H7.24103V8.36641C7.00905 8.53142 6.72736 8.59743 6.39596 8.59743C5.70002 8.59743 5.35205 8.20139 5.35205 7.40931C5.35205 7.01327 5.45147 6.71624 5.66688 6.51822C5.88229 6.3202 6.14741 6.22119 6.46224 6.22119C6.77707 6.22119 7.04219 6.3202 7.22446 6.50172L7.2576 6.51822Z" fill="white"/>
<path d="M9.46146 13.3167C9.4946 13.8778 9.27919 14.4553 8.84837 15.0824C8.41755 15.7095 7.58905 16.5511 6.396 17.6072H9.62716L9.42832 18.9933H4.35789V17.7227C5.63378 16.4851 6.49542 15.5775 6.95938 14.9999C7.40677 14.4223 7.62219 13.9273 7.60562 13.4652C7.57248 12.8217 7.24108 12.4917 6.61141 12.4751C6.08117 12.4421 5.60064 12.7062 5.16982 13.2672L4.09277 12.4256C4.4076 11.9966 4.78871 11.6666 5.2361 11.4355C5.66692 11.2045 6.18059 11.0725 6.77712 11.0725C7.65533 11.0725 8.31813 11.287 8.76552 11.7161C9.21291 12.1451 9.46146 12.6732 9.47803 13.3002L9.46146 13.3167Z" fill="#505A60"/>
<path d="M15.9237 17.3268H15.0455V19.0099H13.2891L13.256 17.3268H9.9751V16.1387L12.212 11.0562L13.7365 11.6007L11.8641 15.9736H13.2891L13.4879 14.1585H15.0455V15.9736H15.9237V17.3268Z" fill="#505A60"/>
</g>
<defs>
<clipPath id="clip0_374_690">
<rect width="20" height="20" fill="white"/>
</clipPath>
</defs>
</svg>
