<svg width="23" height="21" viewBox="0 0 23 21" fill="none" xmlns="http://www.w3.org/2000/svg">
<g clip-path="url(#clip0_374_747)">
<path d="M14.1103 3.46741L15.4886 0.142262C15.5748 1.00159e-05 15.6781 -0.0355531 15.816 0.0533546L16.6946 0.604582C16.798 0.711272 16.8152 0.853524 16.7291 0.995776L14.5238 3.73413C14.4204 3.82304 14.2998 3.84082 14.1965 3.7697C14.1965 3.7697 14.0931 3.59188 14.1103 3.46741ZM16.2294 5.17444C16.3328 5.31669 16.4706 5.35225 16.6085 5.26335L20.4676 3.20069C20.6399 3.094 20.6572 2.93396 20.5538 2.73837L19.8474 1.61813C19.7096 1.47588 19.5545 1.4581 19.3995 1.58257L16.2811 4.80103C16.1778 4.90772 16.1605 5.04997 16.2467 5.19222L16.2294 5.17444ZM16.9358 7.27266L20.1748 5.90348C20.347 5.85014 20.4332 5.90348 20.4676 6.0813L20.6744 7.11263C20.7088 7.29044 20.6399 7.37935 20.4676 7.41491L17.0219 7.75276C16.9186 7.75276 16.8324 7.68163 16.7807 7.53938C16.7807 7.43269 16.8324 7.34379 16.953 7.29044L16.9358 7.27266Z" fill="#FFD469"/>
<path d="M9.04483 20.431L8.37292 20.8222C8.09727 21 7.80438 21.0356 7.52873 20.9467C7.23584 20.8578 7.01187 20.68 6.83959 20.3955L5.04783 17.3193C4.87554 16.9992 4.84108 16.6969 4.92723 16.3946C5.01337 16.0923 5.18565 15.8612 5.46131 15.6834L6.13322 15.2922C6.40888 15.1144 6.70176 15.0788 6.97741 15.1677C7.2703 15.2566 7.49427 15.4344 7.66655 15.7189L9.45831 18.7951C9.59614 19.1152 9.6306 19.4175 9.56168 19.7198C9.49277 20.0221 9.32049 20.2532 9.04483 20.431Z" fill="#00B1FF"/>
<path d="M3.77309 17.4438C3.03227 17.3904 2.18807 16.697 1.27497 15.3811C0.534142 13.9764 0.292943 12.9095 0.568599 12.1982C0.844254 11.4692 1.03377 11.1136 1.15437 11.1136L7.01205 6.65039L11.4053 13.763L4.97909 17.3549C4.9274 17.4616 4.51392 17.4971 3.77309 17.4438Z" fill="#0096D1"/>
<path d="M15.0234 6.34792C16.0227 7.98382 16.7463 9.47747 17.1942 10.8467C17.6421 12.2158 17.6938 13.0516 17.332 13.3716C16.8669 13.6028 16.126 13.2116 15.1268 12.2158C14.1275 11.2201 13.1283 9.90423 12.1118 8.26833C11.0953 6.63242 10.3717 5.15656 9.90657 3.78738C9.45863 2.43598 9.40694 1.58247 9.8032 1.24462C10.2511 1.04902 10.9747 1.44022 11.974 2.43598C12.9905 3.43175 13.9897 4.7298 14.989 6.33014L15.0234 6.34792Z" fill="#727272"/>
<path d="M17.4352 13.2828C17.2974 13.6206 17.0045 13.834 16.5566 13.8874C15.5057 13.9407 14.2824 14.0474 12.9042 14.1897L10.5783 14.403C10.5783 14.403 10.1648 14.4208 9.44124 14.2074C8.70042 13.9941 7.85622 13.1761 6.89143 11.7358C6.03 10.1888 5.66821 9.05079 5.77158 8.28619C5.87495 7.52158 5.97832 7.14817 6.06446 7.14817L7.27045 5.08551C7.99405 3.82302 8.59704 2.72056 9.09667 1.74258C9.32064 1.36917 9.5963 1.20913 9.92364 1.22692C9.88918 1.22692 9.85472 1.22692 9.80304 1.26248C9.4757 1.54698 9.56184 2.36493 10.0442 3.69855C10.5439 5.04995 11.2847 6.52581 12.2839 8.12615C13.2832 9.74427 14.2652 11.0601 15.23 12.0914C16.1948 13.1228 16.8839 13.5495 17.2974 13.3717C17.3491 13.3361 17.4008 13.3006 17.418 13.2472L17.4352 13.2828Z" fill="#D1D1D1"/>
<path d="M2.49831 12.945C2.39494 13.0339 2.27434 13.0694 2.17097 13.0694C1.98145 13.0694 1.8264 12.9805 1.72303 12.8205C1.61966 12.6427 1.56797 12.4827 1.60243 12.3226C1.63688 12.1626 1.7058 12.0381 1.84363 11.967L4.25561 10.3844C4.4279 10.2777 4.58295 10.2422 4.73801 10.2777C4.89306 10.3133 5.01366 10.42 5.08258 10.5622C5.16872 10.7045 5.18595 10.8467 5.16872 11.0068C5.13426 11.1668 5.06535 11.2913 4.92752 11.3624L2.51554 12.945H2.49831Z" fill="#00B1FF"/>
</g>
<defs>
<clipPath id="clip0_374_747">
<rect width="23" height="21" fill="white"/>
</clipPath>
</defs>
</svg>
