<svg width="22" height="14" viewBox="0 0 22 14" fill="none" xmlns="http://www.w3.org/2000/svg">
<path d="M8.66847 14C8.25407 14.0003 7.84367 13.9196 7.46077 13.7624C7.07786 13.6052 6.72996 13.3747 6.43698 13.0841L0.473738 7.30262C0.174899 7.01245 0.00452181 6.61642 8.87117e-05 6.20167C-0.00434439 5.78691 0.157529 5.38739 0.450099 5.091C0.742669 4.79462 1.14197 4.62564 1.56016 4.62124C1.97835 4.61684 2.38117 4.77739 2.68001 5.06756L8.65744 10.8615L19.3831 0.389563C19.6855 0.125616 20.0784 -0.0134202 20.4811 0.00102229C20.8837 0.0154648 21.2654 0.182291 21.5479 0.46722C21.8303 0.75215 21.992 1.13354 21.9997 1.53304C22.0074 1.93254 21.8606 2.31979 21.5893 2.61524L10.8842 13.0981C10.5928 13.3856 10.2471 13.6132 9.8669 13.7679C9.48669 13.9227 9.07944 14.0015 8.66847 14Z" fill="#F95D7F"/>
</svg>
