<svg width="228" height="220" viewBox="0 0 228 220" fill="none" xmlns="http://www.w3.org/2000/svg">
<path d="M226 110C226 50.3534 177.642 2 117.995 2H117.988H117.98H117.972H117.964H117.957H117.949H117.941H117.933H117.925H117.918H117.91H117.902H117.894H117.886H117.879H117.871H117.863H117.855H117.848H117.84H117.832H117.824H117.816H117.809H117.801H117.793H117.785H117.778H117.77H117.762H117.754H117.746H117.739H117.731H117.723H117.715H117.708H117.7H117.692H117.684H117.676H117.669H117.661H117.653H117.645H117.638H117.63H117.622H117.614H117.607H117.599H117.591H117.583H117.575H117.568H117.56H117.552H117.544H117.537H117.529H117.521H117.513H117.506H117.498H117.49H117.482H117.475H117.467H117.459H117.451H117.443H117.436H117.428H117.42H117.412H117.405L117.397 2H117.389H117.381H117.374H117.366H117.358H117.35H117.343H117.335H117.327H117.319H117.312H117.304H117.296H117.288H117.281H117.273H117.265H117.257H117.25H117.242H117.234H117.226H117.219H117.211H117.203H117.195H117.188H117.18H117.172H117.164H117.157H117.149H117.141H117.133H117.126H117.118H117.11H117.103H117.095H117.087H117.079H117.072H117.064H117.056H117.048H117.041H117.033H117.025H117.017H117.01H117.002H116.994H116.986H116.979H116.971H116.963H116.956H116.948H116.94H116.932H116.925H116.917H116.909H116.901H116.894H116.886H116.878H116.871H116.863H116.855H116.847H116.84H116.832H116.824H116.816H116.809H116.801H116.793H116.786H116.778H116.77H116.762H116.755H116.747H116.739H116.732H116.724H116.716H116.708H116.701H116.693H116.685H116.678H116.67H116.662H116.654H116.647H116.639H116.631H116.624H116.616H116.608H116.6H116.593H116.585H116.577H116.57H116.562H116.554H116.546H116.539H116.531H116.523H116.516H116.508H116.5H116.492H116.485H116.477H116.469H116.462H116.454H116.446H116.439H116.431H116.423H116.415H116.408H116.4H116.392H116.385H116.377H116.369H116.362H116.354H116.346H116.338H116.331H116.323H116.315H116.308H116.3H116.292H116.285H116.277H116.269H116.262H116.254H116.246H116.238H116.231H116.223H116.215H116.208H116.2H116.192H116.185H116.177H116.169H116.162H116.154H116.146H116.139H116.131H116.123H116.115H116.108H116.1H116.092H116.085H116.077H116.069H116.062H116.054H116.046H116.039H116.031H116.023H116.016H116.008H116H115.993H115.985H115.977H115.97H115.962H115.954H115.947H115.939H115.931H115.924H115.916H115.908H115.901H115.893H115.885H115.878H115.87H115.862H115.855H115.847H115.839H115.832H115.824H115.816H115.809H115.801H115.793H115.786H115.778H115.77H115.763H115.755H115.747H115.74H115.732H115.724H115.717H115.709H115.701H115.694H115.686H115.678H115.671H115.663H115.655H115.648H115.64H115.632H115.625H115.617H115.609H115.602H115.594H115.586H115.579H115.571H115.564H115.556H115.548H115.541H115.533H115.525H115.518H115.51H115.502H115.495H115.487H115.479H115.472H115.464H115.456H115.449H115.441H115.434H115.426H115.418H115.411H115.403H115.395H115.388H115.38H115.372H115.365H115.357H115.35H115.342H115.334H115.327H115.319H115.311H115.304H115.296H115.288H115.281H115.273H115.266H115.258H115.25H115.243H115.235H115.227H115.22H115.212H115.204H115.197H115.189H115.182H115.174H115.166H115.159H115.151H115.143H115.136H115.128H115.121H115.113H115.105H115.098H115.09H115.082H115.075H115.067H115.06H115.052H115.044H115.037H115.029H115.022H115.014H115.006H114.999H114.991H114.983H114.976H114.968H114.961H114.953H114.945H114.938H114.93H114.923H114.915H114.907H114.9H114.892H114.885H114.877H114.869H114.862H114.854H114.846H114.839H114.831H114.824H114.816H114.808H114.801H114.793H114.786H114.778H114.77H114.763H114.755H114.748H114.74H114.732H114.725H114.717H114.71H114.702H114.694H114.687H114.679H114.672H114.664H114.656H114.649H114.641H114.634H114.626H114.619H114.611H114.603H114.596H114.588H114.581H114.573H114.565H114.558H114.55H114.543H114.535H114.527H114.52H114.512H114.505H114.497H114.49H114.482H114.474H114.467H114.459H114.452H114.444H114.436H114.429H114.421H114.414H114.406H114.399H114.391H114.383H114.376H114.368H114.361H114.353H114.346H114.338H114.33H114.323H114.315H114.308H114.3H114.292H114.285H114.277H114.27H114.262H114.255H114.247H114.24H114.232H114.224H114.217H114.209H114.202H114.194H114.187H114.179H114.171H114.164H114.156H114.149H114.141H114.134H114.126H114.118H114.111H114.103H114.096H114.088H114.081H114.073H114.066C52.2073 2 1.99794 52.0814 2.00003 113.933C2.0011 145.634 2.04144 177.666 2.12688 218H118C177.647 218 226 169.647 226 110Z" stroke="#F95D7F" stroke-width="4"/>
<mask id="mask0_374_501" style="mask-type:alpha" maskUnits="userSpaceOnUse" x="74" y="93" width="81" height="44">
<path d="M114 113.5C111.5 115.5 108 120.5 102 125.5L88.5 110.5L74 111.5L96 136L116 137L154.5 112.5L149 96.4998C134 85 115.325 112.44 114 113.5Z" fill="white"/>
</mask>
<g mask="url(#mask0_374_501)">
<path d="M101.383 134C100.385 134.001 99.3961 133.805 98.4737 133.423C97.5512 133.041 96.7131 132.482 96.0073 131.776L81.6413 117.735C80.9213 117.03 80.5109 116.068 80.5002 115.061C80.4895 114.054 80.8795 113.084 81.5843 112.364C82.2892 111.644 83.2511 111.234 84.2586 111.223C85.266 111.212 86.2365 111.602 86.9564 112.307L101.357 126.378L127.196 100.946C127.924 100.305 128.871 99.9674 129.841 100.002C130.811 100.038 131.73 100.443 132.411 101.135C133.091 101.827 133.481 102.753 133.499 103.723C133.518 104.693 133.164 105.634 132.511 106.351L106.721 131.81C106.019 132.508 105.186 133.061 104.27 133.436C103.354 133.812 102.373 134.004 101.383 134Z" fill="#2951D1"/>
<path d="M117.383 134C116.385 134.001 115.396 133.805 114.474 133.423C113.551 133.041 112.713 132.482 112.007 131.776L97.6413 117.735C96.9213 117.03 96.5109 116.068 96.5002 115.061C96.4895 114.054 96.8795 113.084 97.5843 112.364C98.2892 111.644 100.259 111.223 100.259 111.223C101.266 111.212 102.236 111.602 102.956 112.307L117.357 126.378L143.196 100.946C143.924 100.305 144.871 99.9674 145.841 100.002C146.811 100.038 147.73 100.443 148.411 101.135C149.091 101.827 149.481 102.753 149.499 103.723C149.518 104.693 149.164 105.634 148.511 106.351L122.721 131.81C122.019 132.508 121.186 133.061 120.27 133.436C119.354 133.812 118.373 134.004 117.383 134Z" fill="#2951D1"/>
</g>
</svg>
