<svg width="312" height="85" viewBox="0 0 312 85" fill="none" xmlns="http://www.w3.org/2000/svg">
<mask id="mask0_340_8832" style="mask-type:alpha" maskUnits="userSpaceOnUse" x="0" y="0" width="312" height="84">
<path d="M3.26902e-06 42C1.46359e-06 65.196 18.804 84 42 84L312 84L312 60.4444C312 27.0619 284.938 -7.62939e-06 251.556 -7.62939e-06L42 -7.62939e-06C18.804 -7.62939e-06 5.07444e-06 18.804 3.26902e-06 42Z" fill="#2951D1"/>
</mask>
<g mask="url(#mask0_340_8832)">
<path d="M251.556 -2.12772e-06C284.938 -9.52613e-07 312 27.0619 312 60.4445L312 84.6222L42.3111 84.6222C18.9434 84.6222 -3.10793e-06 65.6789 -2.00216e-06 42.3111C-8.96399e-07 18.9433 18.9433 -1.0316e-05 42.3111 -9.49339e-06L251.556 -2.12772e-06Z" fill="#2951D1"/>
<path d="M52.9751 32.8796L41.5647 28.017V25.7301L52.9751 20.8675V22.8895L43.322 26.8856L52.9751 30.8575V32.8796ZM56.7063 33V20.3379H58.4155L58.608 22.2396H58.7766C59.1136 21.726 59.4907 21.3088 59.908 20.9878C60.3413 20.6669 60.8147 20.4342 61.3282 20.2897C61.8578 20.1292 62.4195 20.049 63.0133 20.049C63.8157 20.049 64.5138 20.1854 65.1076 20.4582C65.7175 20.731 66.1909 21.1724 66.5279 21.7822C66.881 22.392 67.0575 23.2185 67.0575 24.2617V33H64.9391V24.5506C64.9391 24.021 64.8669 23.5876 64.7225 23.2506C64.5941 22.9136 64.4095 22.6488 64.1688 22.4562C63.9441 22.2637 63.6633 22.1273 63.3263 22.047C63.0053 21.9668 62.6442 21.9266 62.243 21.9266C61.6492 21.9266 61.0875 22.0711 60.5579 22.36C60.0283 22.6488 59.603 23.0661 59.2821 23.6117C58.9772 24.1574 58.8247 24.8073 58.8247 25.5616V33H56.7063ZM75.4703 33.2889C74.1864 33.2889 73.1031 33.0562 72.2205 32.5908C71.3539 32.1093 70.6879 31.3791 70.2225 30.4002C69.7731 29.4212 69.5484 28.1775 69.5484 26.6689C69.5484 25.1443 69.7731 23.9006 70.2225 22.9377C70.6879 21.9587 71.3539 21.2366 72.2205 20.7712C73.1031 20.2897 74.1864 20.049 75.4703 20.049C76.7541 20.049 77.8294 20.2897 78.696 20.7712C79.5786 21.2366 80.2447 21.9587 80.694 22.9377C81.1434 23.9006 81.368 25.1443 81.368 26.6689C81.368 28.1775 81.1434 29.4212 80.694 30.4002C80.2447 31.3791 79.5786 32.1093 78.696 32.5908C77.8294 33.0562 76.7541 33.2889 75.4703 33.2889ZM75.4703 31.5075C76.2887 31.5075 76.9708 31.347 77.5164 31.0261C78.0621 30.7051 78.4713 30.2076 78.7441 29.5336C79.033 28.8435 79.1774 27.9769 79.1774 26.9337V26.4041C79.1774 25.3449 79.033 24.4783 78.7441 23.8043C78.4713 23.1303 78.0621 22.6328 77.5164 22.3118C76.9708 21.9908 76.2887 21.8304 75.4703 21.8304C74.6518 21.8304 73.9617 21.9908 73.4 22.3118C72.8544 22.6328 72.4452 23.1303 72.1723 23.8043C71.8995 24.4783 71.7631 25.3449 71.7631 26.4041V26.9337C71.7631 27.9769 71.8995 28.8435 72.1723 29.5336C72.4452 30.2076 72.8544 30.7051 73.4 31.0261C73.9617 31.347 74.6518 31.5075 75.4703 31.5075ZM84.4087 32.8796V30.8575L94.0618 26.8856L84.4087 22.8895V20.8675L95.8191 25.7301V28.017L84.4087 32.8796ZM103.859 33.2889C102.64 33.2889 101.613 33.0562 100.778 32.5908C99.9595 32.1093 99.3337 31.3791 98.9003 30.4002C98.4831 29.4052 98.2745 28.1614 98.2745 26.6689C98.2745 25.1764 98.4831 23.9407 98.9003 22.9618C99.3337 21.9828 99.9676 21.2526 100.802 20.7712C101.653 20.2897 102.696 20.049 103.931 20.049C104.798 20.049 105.544 20.1613 106.17 20.386C106.812 20.6107 107.342 20.9397 107.759 21.373C108.176 21.8063 108.481 22.3279 108.674 22.9377C108.882 23.5475 108.987 24.2456 108.987 25.032H106.844C106.844 24.2938 106.74 23.692 106.531 23.2266C106.339 22.7451 106.026 22.392 105.593 22.1674C105.159 21.9266 104.589 21.8063 103.883 21.8063C103.177 21.8063 102.567 21.9668 102.054 22.2877C101.54 22.5927 101.147 23.0821 100.874 23.7562C100.601 24.4302 100.465 25.3209 100.465 26.4282V26.9337C100.465 27.9769 100.593 28.8435 100.85 29.5336C101.123 30.2236 101.516 30.7292 102.03 31.0501C102.543 31.3711 103.169 31.5316 103.907 31.5316C104.63 31.5316 105.207 31.4032 105.641 31.1464C106.09 30.8896 106.411 30.5205 106.604 30.0391C106.812 29.5576 106.916 28.9799 106.916 28.3059H108.987C108.987 29.012 108.882 29.67 108.674 30.2798C108.481 30.8896 108.176 31.4192 107.759 31.8686C107.342 32.3179 106.812 32.671 106.17 32.9278C105.528 33.1685 104.758 33.2889 103.859 33.2889ZM116.727 33.2889C115.443 33.2889 114.36 33.0562 113.478 32.5908C112.611 32.1093 111.945 31.3791 111.48 30.4002C111.03 29.4212 110.806 28.1775 110.806 26.6689C110.806 25.1443 111.03 23.9006 111.48 22.9377C111.945 21.9587 112.611 21.2366 113.478 20.7712C114.36 20.2897 115.443 20.049 116.727 20.049C118.011 20.049 119.086 20.2897 119.953 20.7712C120.836 21.2366 121.502 21.9587 121.951 22.9377C122.4 23.9006 122.625 25.1443 122.625 26.6689C122.625 28.1775 122.4 29.4212 121.951 30.4002C121.502 31.3791 120.836 32.1093 119.953 32.5908C119.086 33.0562 118.011 33.2889 116.727 33.2889ZM116.727 31.5075C117.546 31.5075 118.228 31.347 118.774 31.0261C119.319 30.7051 119.728 30.2076 120.001 29.5336C120.29 28.8435 120.435 27.9769 120.435 26.9337V26.4041C120.435 25.3449 120.29 24.4783 120.001 23.8043C119.728 23.1303 119.319 22.6328 118.774 22.3118C118.228 21.9908 117.546 21.8304 116.727 21.8304C115.909 21.8304 115.219 21.9908 114.657 22.3118C114.111 22.6328 113.702 23.1303 113.429 23.8043C113.157 24.4783 113.02 25.3449 113.02 26.4041V26.9337C113.02 27.9769 113.157 28.8435 113.429 29.5336C113.702 30.2076 114.111 30.7051 114.657 31.0261C115.219 31.347 115.909 31.5075 116.727 31.5075ZM129.566 33.2889C128.522 33.2889 127.624 33.0562 126.869 32.5908C126.131 32.1254 125.553 31.4032 125.136 30.4242C124.735 29.4292 124.534 28.1454 124.534 26.5726C124.534 25.0801 124.743 23.8524 125.16 22.8895C125.578 21.9266 126.155 21.2125 126.893 20.7471C127.632 20.2817 128.49 20.049 129.469 20.049C130.031 20.049 130.552 20.1132 131.034 20.2416C131.515 20.37 131.941 20.5706 132.31 20.8434C132.695 21.1162 133.032 21.4773 133.321 21.9266H133.465V15.5956H135.584V33H133.875L133.682 31.1946H133.513C133.08 31.9007 132.518 32.4303 131.828 32.7833C131.138 33.1204 130.384 33.2889 129.566 33.2889ZM130.071 31.4353C130.873 31.4353 131.523 31.2588 132.021 30.9057C132.518 30.5526 132.88 30.0391 133.104 29.3651C133.345 28.691 133.465 27.8565 133.465 26.8615V26.4764C133.465 25.6097 133.377 24.8795 133.2 24.2858C133.024 23.692 132.783 23.2185 132.478 22.8655C132.173 22.5124 131.82 22.2637 131.419 22.1192C131.018 21.9748 130.593 21.9026 130.143 21.9026C129.357 21.9026 128.715 22.0631 128.217 22.384C127.72 22.6889 127.351 23.1784 127.11 23.8524C126.869 24.5104 126.749 25.369 126.749 26.4282V26.9337C126.749 28.025 126.877 28.9077 127.134 29.5817C127.391 30.2397 127.76 30.7131 128.242 31.002C128.739 31.2909 129.349 31.4353 130.071 31.4353ZM138.915 17.9547V15.5956H141.033V17.9547H138.915ZM138.915 33V20.3379H141.033V33H138.915ZM144.322 33V20.3379H146.031L146.224 22.2396H146.392C146.729 21.726 147.106 21.3088 147.523 20.9878C147.957 20.6669 148.43 20.4342 148.944 20.2897C149.473 20.1292 150.035 20.049 150.629 20.049C151.431 20.049 152.129 20.1854 152.723 20.4582C153.333 20.731 153.806 21.1724 154.143 21.7822C154.496 22.392 154.673 23.2185 154.673 24.2617V33H152.555V24.5506C152.555 24.021 152.482 23.5876 152.338 23.2506C152.21 22.9136 152.025 22.6488 151.784 22.4562C151.56 22.2637 151.279 22.1273 150.942 22.047C150.621 21.9668 150.26 21.9266 149.858 21.9266C149.265 21.9266 148.703 22.0711 148.173 22.36C147.644 22.6488 147.219 23.0661 146.898 23.6117C146.593 24.1574 146.44 24.8073 146.44 25.5616V33H144.322ZM160.029 37.3812C159.419 37.3812 158.857 37.2528 158.343 36.996C157.83 36.7553 157.421 36.4022 157.116 35.9368C156.811 35.4714 156.658 34.9178 156.658 34.2758C156.658 33.5697 156.851 32.984 157.236 32.5185C157.637 32.0531 158.111 31.7081 158.656 31.4834C158.255 31.2909 157.942 31.0261 157.718 30.689C157.493 30.336 157.381 29.9508 157.381 29.5336C157.381 28.9719 157.581 28.4984 157.982 28.1133C158.4 27.7281 158.905 27.4713 159.499 27.343C158.953 26.9899 158.52 26.5405 158.199 25.9949C157.894 25.4332 157.742 24.8153 157.742 24.1413C157.742 23.3389 157.926 22.6328 158.295 22.0229C158.68 21.4131 159.258 20.9316 160.029 20.5786C160.815 20.2255 161.77 20.049 162.893 20.049C163.407 20.049 163.888 20.0891 164.338 20.1694C164.787 20.2335 165.188 20.3459 165.541 20.5064C166.103 20.2496 166.52 19.9206 166.793 19.5194C167.082 19.1182 167.258 18.709 167.322 18.2917H169.417C169.417 18.7731 169.304 19.2305 169.08 19.6638C168.871 20.0811 168.582 20.4342 168.213 20.723C167.844 20.9958 167.395 21.1804 166.865 21.2767C167.266 21.6618 167.563 22.0952 167.756 22.5766C167.964 23.0581 168.069 23.5796 168.069 24.1413C168.069 24.9437 167.876 25.6579 167.491 26.2838C167.122 26.8936 166.56 27.3751 165.806 27.7281C165.052 28.0812 164.105 28.2577 162.965 28.2577H160.991C160.558 28.2577 160.205 28.346 159.932 28.5225C159.659 28.683 159.523 28.9478 159.523 29.3169C159.523 29.6379 159.659 29.9027 159.932 30.1113C160.205 30.3039 160.558 30.4002 160.991 30.4002H166.143C167.074 30.4002 167.836 30.7131 168.43 31.339C169.024 31.9488 169.321 32.7352 169.321 33.6981C169.321 34.3882 169.144 35.006 168.791 35.5517C168.454 36.1134 167.972 36.5547 167.347 36.8757C166.737 37.2127 166.023 37.3812 165.204 37.3812H160.029ZM160.63 35.7683H165.18C165.549 35.7683 165.886 35.6881 166.191 35.5276C166.496 35.3832 166.737 35.1745 166.913 34.9017C167.09 34.6289 167.178 34.332 167.178 34.011C167.178 33.4654 167.018 33.0321 166.697 32.7111C166.376 32.3902 165.974 32.2297 165.493 32.2297H160.63C160.117 32.2297 159.683 32.4062 159.33 32.7593C158.977 33.0963 158.801 33.5135 158.801 34.011C158.801 34.5406 158.977 34.9659 159.33 35.2869C159.683 35.6079 160.117 35.7683 160.63 35.7683ZM162.917 26.6689C163.944 26.6689 164.707 26.4443 165.204 25.9949C165.702 25.5455 165.95 24.9277 165.95 24.1413C165.95 23.371 165.702 22.7612 165.204 22.3118C164.707 21.8625 163.944 21.6378 162.917 21.6378C161.89 21.6378 161.12 21.8625 160.606 22.3118C160.109 22.7612 159.86 23.371 159.86 24.1413C159.86 24.6388 159.972 25.0801 160.197 25.4653C160.422 25.8505 160.759 26.1474 161.208 26.356C161.657 26.5646 162.227 26.6689 162.917 26.6689ZM171.984 22.8655V20.3379H174.344V22.8655H171.984ZM171.984 33V30.4724H174.344V33H171.984ZM178.891 33V22.1192H177.013V20.3379H178.891V18.3158C178.891 17.8183 178.963 17.3529 179.107 16.9196C179.252 16.4702 179.525 16.1091 179.926 15.8363C180.327 15.5474 180.889 15.403 181.611 15.403C181.836 15.403 182.052 15.419 182.261 15.4511C182.486 15.4672 182.694 15.4993 182.887 15.5474C183.096 15.5795 183.28 15.6196 183.441 15.6678V17.1844H182.165C181.763 17.1844 181.467 17.2887 181.274 17.4973C181.097 17.6899 181.009 17.9707 181.009 18.3398V20.3379H183.441V22.1192H181.009V33H178.891ZM190.214 33.2889C188.93 33.2889 187.847 33.0562 186.965 32.5908C186.098 32.1093 185.432 31.3791 184.967 30.4002C184.517 29.4212 184.292 28.1775 184.292 26.6689C184.292 25.1443 184.517 23.9006 184.967 22.9377C185.432 21.9587 186.098 21.2366 186.965 20.7712C187.847 20.2897 188.93 20.049 190.214 20.049C191.498 20.049 192.573 20.2897 193.44 20.7712C194.323 21.2366 194.989 21.9587 195.438 22.9377C195.887 23.9006 196.112 25.1443 196.112 26.6689C196.112 28.1775 195.887 29.4212 195.438 30.4002C194.989 31.3791 194.323 32.1093 193.44 32.5908C192.573 33.0562 191.498 33.2889 190.214 33.2889ZM190.214 31.5075C191.033 31.5075 191.715 31.347 192.26 31.0261C192.806 30.7051 193.215 30.2076 193.488 29.5336C193.777 28.8435 193.921 27.9769 193.921 26.9337V26.4041C193.921 25.3449 193.777 24.4783 193.488 23.8043C193.215 23.1303 192.806 22.6328 192.26 22.3118C191.715 21.9908 191.033 21.8304 190.214 21.8304C189.396 21.8304 188.706 21.9908 188.144 22.3118C187.598 22.6328 187.189 23.1303 186.916 23.8043C186.644 24.4783 186.507 25.3449 186.507 26.4041V26.9337C186.507 27.9769 186.644 28.8435 186.916 29.5336C187.189 30.2076 187.598 30.7051 188.144 31.0261C188.706 31.347 189.396 31.5075 190.214 31.5075ZM198.744 33V20.3379H200.453L200.645 22.4322H200.814C200.942 22.031 201.119 21.6538 201.343 21.3008C201.568 20.9317 201.873 20.6348 202.258 20.4101C202.643 20.1694 203.117 20.049 203.678 20.049C203.919 20.049 204.136 20.0731 204.328 20.1212C204.537 20.1533 204.689 20.1934 204.786 20.2416V22.1914H203.991C203.446 22.1914 202.972 22.2877 202.571 22.4803C202.186 22.6568 201.865 22.9136 201.608 23.2506C201.351 23.5876 201.159 23.9889 201.03 24.4543C200.918 24.9197 200.862 25.4172 200.862 25.9468V33H198.744ZM206.038 27.5596V25.4172H212.129V27.5596H206.038ZM214.753 33V20.3379H216.462L216.654 22.2396H216.823C217.144 21.726 217.505 21.3088 217.906 20.9878C218.307 20.6669 218.749 20.4342 219.23 20.2897C219.712 20.1292 220.233 20.049 220.795 20.049C221.613 20.049 222.319 20.2175 222.913 20.5545C223.507 20.8755 223.948 21.4372 224.237 22.2396H224.382C224.687 21.726 225.04 21.3168 225.441 21.0119C225.842 20.6909 226.291 20.4502 226.789 20.2897C227.286 20.1292 227.816 20.049 228.378 20.049C229.148 20.049 229.822 20.1854 230.4 20.4582C230.978 20.715 231.427 21.1483 231.748 21.7581C232.085 22.3519 232.253 23.1543 232.253 24.1654V33H230.135V24.5024C230.135 23.9889 230.071 23.5636 229.942 23.2266C229.83 22.8895 229.662 22.6328 229.437 22.4562C229.212 22.2637 228.947 22.1273 228.642 22.047C228.354 21.9668 228.041 21.9266 227.704 21.9266C227.142 21.9266 226.62 22.0711 226.139 22.36C225.674 22.6488 225.296 23.0661 225.008 23.6117C224.719 24.1574 224.574 24.8073 224.574 25.5616V33H222.456V24.5024C222.456 23.9889 222.392 23.5636 222.263 23.2266C222.135 22.8895 221.966 22.6328 221.758 22.4562C221.549 22.2637 221.292 22.1273 220.987 22.047C220.699 21.9668 220.394 21.9266 220.073 21.9266C219.495 21.9266 218.957 22.0711 218.46 22.36C217.978 22.6488 217.593 23.0661 217.304 23.6117C217.015 24.1574 216.871 24.8073 216.871 25.5616V33H214.753ZM240.519 33.2889C239.267 33.2889 238.208 33.0562 237.341 32.5908C236.491 32.1093 235.841 31.3791 235.391 30.4002C234.958 29.4212 234.741 28.1775 234.741 26.6689C234.741 25.1443 234.958 23.9006 235.391 22.9377C235.841 21.9587 236.499 21.2366 237.365 20.7712C238.232 20.2897 239.315 20.049 240.615 20.049C241.803 20.049 242.798 20.2817 243.6 20.7471C244.402 21.1964 245.004 21.8785 245.405 22.7933C245.823 23.692 246.031 24.8234 246.031 26.1875V27.1985H236.932C236.964 28.2096 237.108 29.0441 237.365 29.7021C237.638 30.344 238.039 30.8174 238.569 31.1223C239.098 31.4112 239.764 31.5556 240.567 31.5556C241.112 31.5556 241.586 31.4915 241.987 31.3631C242.404 31.2186 242.749 31.018 243.022 30.7613C243.311 30.5045 243.528 30.1996 243.672 29.8465C243.817 29.4934 243.897 29.1083 243.913 28.691H245.983C245.967 29.3651 245.839 29.9909 245.598 30.5687C245.357 31.1304 245.004 31.6118 244.539 32.013C244.073 32.4142 243.504 32.7272 242.83 32.9519C242.156 33.1765 241.385 33.2889 240.519 33.2889ZM236.98 25.6097H243.841C243.841 24.9036 243.76 24.3098 243.6 23.8284C243.44 23.3469 243.207 22.9537 242.902 22.6488C242.613 22.3439 242.268 22.1273 241.867 21.9989C241.482 21.8544 241.04 21.7822 240.543 21.7822C239.805 21.7822 239.179 21.9186 238.665 22.1914C238.152 22.4643 237.758 22.8815 237.486 23.4432C237.213 24.0049 237.044 24.7271 236.98 25.6097ZM249.061 32.8796V30.8575L258.714 26.8856L249.061 22.8895V20.8675L260.471 25.7301V28.017L249.061 32.8796Z" fill="#F4F7FF"/>
<path d="M47.2218 69.8275C46.6761 69.8275 46.1545 69.7794 45.657 69.6831C45.1595 69.6029 44.7182 69.4424 44.3331 69.2016C43.9639 68.977 43.667 68.656 43.4424 68.2387C43.2337 67.8375 43.1294 67.316 43.1294 66.674V61.5225C43.1294 61.1695 43.0251 60.8886 42.8165 60.68C42.6079 60.4713 42.3431 60.3269 42.0221 60.2467C41.7172 60.1504 41.4042 60.1022 41.0833 60.1022V58.0561C41.4042 58.0561 41.7172 58.016 42.0221 57.9357C42.3431 57.8394 42.6079 57.687 42.8165 57.4783C43.0251 57.2697 43.1294 56.9969 43.1294 56.6599V51.4602C43.1294 50.8183 43.2337 50.2967 43.4424 49.8955C43.667 49.4782 43.9639 49.1573 44.3331 48.9326C44.7182 48.6919 45.1595 48.5314 45.657 48.4511C46.1545 48.3549 46.6761 48.3067 47.2218 48.3067V49.6548C46.9489 49.6548 46.644 49.6949 46.307 49.7751C45.986 49.8554 45.7052 49.9998 45.4645 50.2084C45.2398 50.4171 45.1194 50.73 45.1034 51.1473L44.8867 56.4191C44.8546 57.2216 44.6701 57.8474 44.3331 58.2968C43.996 58.7462 43.3702 58.9708 42.4554 58.9708V59.1875C43.0652 59.1875 43.5387 59.2918 43.8757 59.5004C44.2287 59.7091 44.4775 60.0059 44.6219 60.3911C44.7824 60.7602 44.8707 61.2096 44.8867 61.7392L45.1034 66.987C45.1194 67.3882 45.2398 67.6931 45.4645 67.9017C45.7052 68.1264 45.986 68.2789 46.307 68.3591C46.628 68.4393 46.9329 68.4795 47.2218 68.4795V69.8275ZM55.3472 66.2889C54.0633 66.2889 52.98 66.0562 52.0974 65.5908C51.2308 65.1093 50.5648 64.3791 50.0994 63.4002C49.65 62.4212 49.4253 61.1775 49.4253 59.6689C49.4253 58.1443 49.65 56.9006 50.0994 55.9377C50.5648 54.9587 51.2308 54.2366 52.0974 53.7712C52.98 53.2897 54.0633 53.049 55.3472 53.049C56.631 53.049 57.7063 53.2897 58.5729 53.7712C59.4555 54.2366 60.1215 54.9587 60.5709 55.9377C61.0203 56.9006 61.2449 58.1443 61.2449 59.6689C61.2449 61.1775 61.0203 62.4212 60.5709 63.4002C60.1215 64.3791 59.4555 65.1093 58.5729 65.5908C57.7063 66.0562 56.631 66.2889 55.3472 66.2889ZM55.3472 64.5075C56.1656 64.5075 56.8477 64.347 57.3933 64.0261C57.939 63.7051 58.3482 63.2076 58.621 62.5336C58.9099 61.8435 59.0543 60.9769 59.0543 59.9337V59.4041C59.0543 58.3449 58.9099 57.4783 58.621 56.8043C58.3482 56.1303 57.939 55.6328 57.3933 55.3118C56.8477 54.9908 56.1656 54.8304 55.3472 54.8304C54.5287 54.8304 53.8386 54.9908 53.2769 55.3118C52.7313 55.6328 52.3221 56.1303 52.0492 56.8043C51.7764 57.4783 51.64 58.3449 51.64 59.4041V59.9337C51.64 60.9769 51.7764 61.8435 52.0492 62.5336C52.3221 63.2076 52.7313 63.7051 53.2769 64.0261C53.8386 64.347 54.5287 64.5075 55.3472 64.5075ZM63.8764 66V53.3379H65.5855L65.7781 55.2396H65.9466C66.2836 54.726 66.6607 54.3088 67.078 53.9878C67.5113 53.6669 67.9847 53.4342 68.4983 53.2897C69.0279 53.1292 69.5896 53.049 70.1834 53.049C70.9858 53.049 71.6839 53.1854 72.2777 53.4582C72.8875 53.731 73.3609 54.1724 73.6979 54.7822C74.051 55.392 74.2275 56.2185 74.2275 57.2617V66H72.1092V57.5506C72.1092 57.021 72.0369 56.5876 71.8925 56.2506C71.7641 55.9136 71.5796 55.6488 71.3388 55.4562C71.1142 55.2637 70.8333 55.1273 70.4963 55.047C70.1753 54.9668 69.8142 54.9266 69.413 54.9266C68.8192 54.9266 68.2576 55.0711 67.728 55.36C67.1984 55.6488 66.7731 56.0661 66.4521 56.6117C66.1472 57.1574 65.9947 57.8073 65.9947 58.5616V66H63.8764ZM77.4406 66V48.5956H79.559V66H77.4406ZM83.9308 70.3812C83.5457 70.3812 83.2086 70.3491 82.9198 70.2849C82.647 70.2368 82.4624 70.2047 82.3661 70.1886V68.648H83.4253C83.8105 68.648 84.1876 68.5677 84.5567 68.4073C84.9258 68.2468 85.2709 67.9739 85.5918 67.5888C85.9128 67.2036 86.1856 66.674 86.4103 66L81.4995 53.3379H83.7142L86.2418 59.8615C86.3541 60.1664 86.4825 60.5436 86.6269 60.9929C86.7874 61.4262 86.9399 61.8756 87.0843 62.341C87.2448 62.8064 87.3732 63.2156 87.4695 63.5687H87.6139C87.6781 63.3119 87.7583 63.023 87.8546 62.7021C87.9509 62.3811 88.0472 62.0521 88.1435 61.7151C88.2558 61.362 88.3602 61.033 88.4565 60.7281C88.5688 60.4072 88.6571 60.1263 88.7212 59.8856L90.8637 53.3379H93.0062L88.7212 65.6389C88.4805 66.329 88.2157 66.9629 87.9269 67.5406C87.638 68.1344 87.317 68.64 86.964 69.0572C86.6109 69.4745 86.1856 69.7954 85.6881 70.0201C85.1906 70.2608 84.6048 70.3812 83.9308 70.3812ZM106.316 49.4863V50.4732C106.011 50.5374 105.754 50.6899 105.545 50.9306C105.353 51.1713 105.208 51.4763 105.112 51.8454C105.032 52.1984 104.992 52.5916 104.992 53.0249H106.099V55.5285H103.74V53.2897C103.74 52.3589 103.868 51.6367 104.125 51.1232C104.398 50.5936 104.735 50.2084 105.136 49.9677C105.537 49.7109 105.93 49.5505 106.316 49.4863ZM102.584 49.4863V50.4732C102.279 50.5374 102.023 50.6899 101.814 50.9306C101.621 51.1713 101.477 51.4763 101.381 51.8454C101.301 52.1984 101.26 52.5916 101.26 53.0249H102.344V55.5285H99.9845V53.2897C99.9845 52.3589 100.121 51.6367 100.394 51.1232C100.667 50.5936 101.004 50.2084 101.405 49.9677C101.806 49.7109 102.199 49.5505 102.584 49.4863ZM135.913 49.4863V50.4732C135.608 50.5374 135.351 50.6899 135.142 50.9306C134.95 51.1713 134.805 51.4763 134.709 51.8454C134.629 52.1984 134.589 52.5916 134.589 53.0249H135.696V55.5285H133.337V53.2897C133.337 52.3589 133.465 51.6367 133.722 51.1232C133.995 50.5936 134.332 50.2084 134.733 49.9677C135.134 49.7109 135.527 49.5505 135.913 49.4863ZM132.181 49.4863V50.4732C131.876 50.5374 131.62 50.6899 131.411 50.9306C131.218 51.1713 131.074 51.4763 130.978 51.8454C130.897 52.1984 130.857 52.5916 130.857 53.0249H131.941V55.5285H129.582V53.2897C129.582 52.3589 129.718 51.6367 129.991 51.1232C130.264 50.5936 130.601 50.2084 131.002 49.9677C131.403 49.7109 131.796 49.5505 132.181 49.4863ZM147.288 66.2889C146.822 66.2889 146.357 66.2327 145.892 66.1204C145.426 66.008 144.993 65.8235 144.592 65.5667C144.19 65.3099 143.869 64.9569 143.629 64.5075C143.388 64.0421 143.268 63.4644 143.268 62.7743C143.268 61.9077 143.476 61.1935 143.894 60.6318C144.311 60.0701 144.889 59.6368 145.627 59.3319C146.381 59.0109 147.272 58.7943 148.299 58.682C149.326 58.5536 150.441 58.4894 151.645 58.4894V57.045C151.645 56.5796 151.565 56.1784 151.404 55.8414C151.244 55.5044 150.955 55.2476 150.538 55.0711C150.136 54.8785 149.559 54.7822 148.804 54.7822C148.082 54.7822 147.504 54.8785 147.071 55.0711C146.654 55.2476 146.357 55.4803 146.18 55.7692C146.02 56.0581 145.94 56.379 145.94 56.7321V57.0932H143.894C143.877 57.0129 143.869 56.9327 143.869 56.8524C143.869 56.7722 143.869 56.6759 143.869 56.5636C143.869 55.7933 144.078 55.1513 144.495 54.6378C144.929 54.1082 145.53 53.715 146.301 53.4582C147.071 53.1854 147.954 53.049 148.949 53.049C150.008 53.049 150.891 53.2014 151.597 53.5064C152.319 53.8113 152.857 54.2446 153.21 54.8063C153.579 55.368 153.763 56.042 153.763 56.8284V63.689C153.763 63.994 153.835 64.2106 153.98 64.339C154.124 64.4513 154.301 64.5075 154.51 64.5075H155.448V65.9037C155.224 66 154.975 66.0802 154.702 66.1444C154.429 66.2247 154.116 66.2648 153.763 66.2648C153.346 66.2648 153.001 66.1765 152.728 66C152.455 65.8395 152.247 65.6148 152.102 65.326C151.958 65.0211 151.862 64.684 151.813 64.3149H151.645C151.356 64.7161 150.987 65.0692 150.538 65.3741C150.104 65.663 149.615 65.8877 149.069 66.0481C148.523 66.2086 147.93 66.2889 147.288 66.2889ZM147.817 64.5075C148.331 64.5075 148.812 64.4273 149.262 64.2668C149.727 64.1063 150.136 63.8816 150.489 63.5927C150.842 63.2878 151.123 62.9267 151.332 62.5095C151.541 62.0922 151.645 61.6349 151.645 61.1374V60.0782C150.345 60.0782 149.238 60.1504 148.323 60.2948C147.408 60.4393 146.702 60.696 146.205 61.0651C145.723 61.4342 145.482 61.9558 145.482 62.6298C145.482 63.0632 145.579 63.4162 145.771 63.689C145.964 63.9619 146.237 64.1705 146.59 64.3149C146.943 64.4433 147.352 64.5075 147.817 64.5075ZM157.228 66V53.3379H158.937L159.13 55.2396H159.298C159.635 54.726 160.012 54.3088 160.429 53.9878C160.863 53.6669 161.336 53.4342 161.85 53.2897C162.379 53.1292 162.941 53.049 163.535 53.049C164.337 53.049 165.035 53.1854 165.629 53.4582C166.239 53.731 166.712 54.1724 167.049 54.7822C167.402 55.392 167.579 56.2185 167.579 57.2617V66H165.461V57.5506C165.461 57.021 165.388 56.5876 165.244 56.2506C165.116 55.9136 164.931 55.6488 164.69 55.4562C164.466 55.2637 164.185 55.1273 163.848 55.047C163.527 54.9668 163.166 54.9266 162.765 54.9266C162.171 54.9266 161.609 55.0711 161.079 55.36C160.55 55.6488 160.125 56.0661 159.804 56.6117C159.499 57.1574 159.346 57.8073 159.346 58.5616V66H157.228ZM175.101 66.2889C174.058 66.2889 173.159 66.0562 172.405 65.5908C171.667 65.1254 171.089 64.4032 170.672 63.4242C170.271 62.4292 170.07 61.1454 170.07 59.5726C170.07 58.0801 170.279 56.8524 170.696 55.8895C171.113 54.9266 171.691 54.2125 172.429 53.7471C173.167 53.2817 174.026 53.049 175.005 53.049C175.567 53.049 176.088 53.1132 176.57 53.2416C177.051 53.37 177.476 53.5706 177.845 53.8434C178.231 54.1162 178.568 54.4773 178.856 54.9266H179.001V48.5956H181.119V66H179.41L179.218 64.1946H179.049C178.616 64.9007 178.054 65.4303 177.364 65.7833C176.674 66.1204 175.92 66.2889 175.101 66.2889ZM175.607 64.4353C176.409 64.4353 177.059 64.2588 177.557 63.9057C178.054 63.5526 178.415 63.0391 178.64 62.3651C178.88 61.691 179.001 60.8565 179.001 59.8615V59.4764C179.001 58.6097 178.913 57.8795 178.736 57.2858C178.56 56.692 178.319 56.2185 178.014 55.8655C177.709 55.5124 177.356 55.2637 176.955 55.1192C176.553 54.9748 176.128 54.9026 175.679 54.9026C174.892 54.9026 174.251 55.0631 173.753 55.384C173.256 55.6889 172.886 56.1784 172.646 56.8524C172.405 57.5104 172.285 58.369 172.285 59.4282V59.9337C172.285 61.025 172.413 61.9077 172.67 62.5817C172.927 63.2397 173.296 63.7131 173.777 64.002C174.275 64.2909 174.884 64.4353 175.607 64.4353ZM184.282 55.5285V54.5656C184.603 54.4853 184.86 54.3248 185.052 54.0841C185.261 53.8434 185.405 53.5465 185.486 53.1934C185.582 52.8404 185.63 52.4472 185.63 52.0139H184.523V49.4863H186.882V51.7491C186.882 52.6638 186.745 53.386 186.473 53.9156C186.2 54.4452 185.863 54.8304 185.462 55.0711C185.076 55.2958 184.683 55.4482 184.282 55.5285ZM188.037 55.5285V54.5656C188.342 54.4853 188.591 54.3248 188.784 54.0841C188.992 53.8434 189.137 53.5465 189.217 53.1934C189.313 52.8404 189.361 52.4472 189.361 52.0139H188.254V49.4863H190.613V51.7491C190.613 52.6638 190.477 53.386 190.204 53.9156C189.947 54.4452 189.618 54.8304 189.217 55.0711C188.816 55.2958 188.422 55.4482 188.037 55.5285ZM230.416 49.4863V50.4732C230.111 50.5374 229.854 50.6899 229.646 50.9306C229.453 51.1713 229.309 51.4763 229.212 51.8454C229.132 52.1984 229.092 52.5916 229.092 53.0249H230.199V55.5285H227.84V53.2897C227.84 52.3589 227.969 51.6367 228.225 51.1232C228.498 50.5936 228.835 50.2084 229.236 49.9677C229.638 49.7109 230.031 49.5505 230.416 49.4863ZM226.685 49.4863V50.4732C226.38 50.5374 226.123 50.6899 225.914 50.9306C225.722 51.1713 225.577 51.4763 225.481 51.8454C225.401 52.1984 225.361 52.5916 225.361 53.0249H226.444V55.5285H224.085V53.2897C224.085 52.3589 224.221 51.6367 224.494 51.1232C224.767 50.5936 225.104 50.2084 225.505 49.9677C225.906 49.7109 226.3 49.5505 226.685 49.4863ZM233.174 48.3067C233.735 48.3067 234.257 48.3549 234.738 48.4511C235.236 48.5314 235.677 48.6919 236.062 48.9326C236.447 49.1573 236.744 49.4782 236.953 49.8955C237.178 50.2967 237.29 50.8183 237.29 51.4602V56.6117C237.29 56.9487 237.394 57.2296 237.603 57.4543C237.812 57.6629 238.068 57.8153 238.373 57.9116C238.694 57.9919 239.015 58.032 239.336 58.032V60.0782C239.015 60.0782 238.694 60.1263 238.373 60.2226C238.068 60.3028 237.812 60.4473 237.603 60.6559C237.394 60.8645 237.29 61.1374 237.29 61.4744V66.674C237.29 67.316 237.178 67.8375 236.953 68.2387C236.744 68.656 236.447 68.977 236.062 69.2016C235.677 69.4424 235.236 69.6029 234.738 69.6831C234.257 69.7794 233.735 69.8275 233.174 69.8275V68.4795C233.462 68.4795 233.767 68.4393 234.088 68.3591C234.409 68.2789 234.69 68.1264 234.931 67.9017C235.172 67.6931 235.3 67.3882 235.316 66.987L235.533 61.7151C235.565 60.9127 235.749 60.2868 236.086 59.8374C236.423 59.3881 237.049 59.1634 237.964 59.1634V58.9468C237.354 58.9468 236.873 58.8424 236.52 58.6338C236.183 58.4252 235.934 58.1363 235.773 57.7672C235.629 57.382 235.549 56.9247 235.533 56.3951L235.316 51.1473C235.3 50.73 235.172 50.4171 234.931 50.2084C234.706 49.9998 234.433 49.8554 234.112 49.7751C233.791 49.6949 233.479 49.6548 233.174 49.6548V48.3067Z" fill="#F4F7FF"/>
<g clip-path="url(#clip0_340_8832)">
<path d="M196.674 46.9773L207.692 45.1136L219.417 46.9773C220.012 47.0227 220.423 47.25 220.674 47.6818C220.926 48.1136 220.949 48.5909 220.72 49.1136L209.337 70.25C209.017 70.75 208.583 71.0227 208.034 71.0227C207.486 71.0227 207.074 70.7727 206.732 70.25L195.394 49.1136C195.143 48.6136 195.143 48.1364 195.394 47.6818C195.646 47.25 196.08 47 196.652 46.9773H196.674Z" fill="#FECB21"/>
<path d="M204.354 49.6591C204.88 50.2046 205.154 50.8864 205.154 51.6819C205.154 52.4773 204.88 53.1591 204.354 53.6819C203.828 54.2046 203.143 54.4773 202.32 54.4773C201.497 54.4773 200.811 54.2046 200.286 53.6819C199.76 53.1591 199.486 52.4773 199.486 51.6819C199.486 50.8864 199.76 50.2046 200.286 49.6591C200.811 49.1137 201.497 48.8409 202.297 48.8409C203.097 48.8409 203.828 49.1137 204.354 49.6591ZM207.874 57.9091C207.348 57.3864 206.663 57.1137 205.863 57.1137C205.063 57.1137 204.377 57.3864 203.828 57.9091C203.28 58.4319 203.006 59.1137 203.006 59.9091C203.006 60.7046 203.28 61.3864 203.828 61.9319C204.377 62.4773 205.063 62.75 205.863 62.75C206.663 62.75 207.348 62.4773 207.874 61.9319C208.4 61.3864 208.697 60.7046 208.72 59.9091C208.674 59.1137 208.4 58.4319 207.874 57.9091ZM209.657 69.4319C208.948 69.0682 208.491 68.5228 208.286 67.7955C208.057 67.0682 208.148 66.3409 208.514 65.6364C208.88 64.9319 209.428 64.4546 210.16 64.25C210.891 64.0228 211.623 64.1137 212.354 64.4773L209.657 69.4546V69.4319ZM214.366 51.5C214.891 52.0228 215.166 52.7046 215.166 53.5228C215.166 54.3409 214.891 55.0228 214.366 55.5455C213.84 56.0682 213.154 56.3409 212.354 56.3409C211.554 56.3409 210.868 56.0682 210.343 55.5455C209.817 55.0228 209.543 54.3409 209.543 53.5228C209.543 52.7046 209.817 52.0228 210.343 51.5C210.868 50.9773 211.554 50.7046 212.354 50.7046C213.154 50.7046 213.84 50.9773 214.366 51.5Z" fill="#F43B22"/>
<path d="M197.109 49.9318C196.789 50.1136 196.423 50.2045 196.057 50.2045C195.28 50.1591 194.686 49.7955 194.252 49.1136C194 48.5909 193.932 48.0682 194.092 47.5227C194.229 46.9773 194.572 46.5455 195.075 46.2727C196.995 45.2045 199.029 44.4091 201.223 43.8636C203.395 43.2955 205.635 43 207.897 43C210.183 43 212.423 43.25 214.64 43.7955C216.857 44.3409 218.937 45.1364 220.88 46.2045C221.383 46.5 221.726 46.9091 221.909 47.4545C222.069 48 222.023 48.5227 221.749 49.0455C221.475 49.5682 221.063 49.8864 220.537 50.0682C220.012 50.2273 219.463 50.1591 218.915 49.8864C217.269 49 215.509 48.3409 213.657 47.8864C211.806 47.4318 209.932 47.2045 208.012 47.2045H207.897C205.977 47.2045 204.103 47.4318 202.252 47.9091C200.4 48.3864 198.686 49.0682 197.109 49.9318Z" fill="#C4790C"/>
</g>
<path d="M125.292 57.5964L121.89 59.8154C121.89 59.8154 120.189 55.4718 118.901 52.6863C118.385 51.5532 116.736 51.1755 115.963 49.5703C114.623 46.832 116.221 44.4714 117.767 46.171C119.571 48.1539 122.251 49.6175 122.818 50.7506C123.694 52.6391 125.292 57.5964 125.292 57.5964Z" fill="#FFDD67"/>
<path d="M127.972 59.3904C128.23 60.9012 128.024 63.2146 126.58 65.9529C126.58 65.9529 123.642 62.7425 123.282 61.2317C123.282 61.2317 122.457 55.6134 121.581 52.0253C121.22 50.5617 119.364 49.7119 118.9 47.6346C118.076 44.0464 120.55 41.5442 121.993 43.952C123.642 46.7375 126.426 49.0982 126.787 50.5617C127.405 53.064 127.663 57.2187 127.972 59.3904Z" fill="#FFDD67"/>
<path d="M123.642 56.5577C123.642 56.5577 123.385 54.4331 122.508 50.845C122.148 49.3814 120.292 48.5316 119.828 46.4542C119.519 45.2267 119.622 44.0936 119.983 43.291C119.107 43.9048 118.385 45.6044 118.849 47.6818C119.313 49.7591 121.22 50.6089 121.529 52.0725C121.89 53.6305 122.199 55.2357 122.199 55.2357L119.622 54.3387L123.642 56.5577Z" fill="#EBA352"/>
<path d="M126.735 58.824C123.333 55.9912 119.519 54.2444 117.045 53.1585C113.386 51.5061 114.365 53.7722 108.128 55.283C107.303 55.4719 106.324 56.0384 107.097 57.4548C107.819 58.824 113.695 57.7853 114.623 56.9827C114.623 56.9827 117.097 59.7682 119.571 59.6738C119.571 59.6738 119.158 61.5151 119.725 62.4121C119.725 62.4121 116.22 64.0645 114.726 65.5281L110.602 62.9786C110.293 59.06 109.52 57.8797 107.407 58.0686C105.448 58.2574 105.654 59.957 105.706 61.3262C105.757 63.8285 105.036 64.2534 105.706 65.2448C108.231 69.0218 111.478 71.3824 117.457 71.3824C119.674 71.3824 121.117 71.3352 122.509 70.7214C124.777 69.6356 130.498 61.9872 126.735 58.824Z" fill="#FFDD67"/>
<path d="M127.405 59.5792C128.694 63.1674 124.106 69.0689 122.096 69.9659C120.705 70.5797 119.313 70.6269 117.045 70.6269C111.118 70.6269 107.922 68.3135 105.396 64.5837C105.448 64.7726 105.551 65.0086 105.654 65.1975C108.231 69.0217 111.478 71.3823 117.457 71.3823C119.674 71.3823 121.117 71.3351 122.509 70.7213C124.622 69.7299 129.725 63.0729 127.405 59.5792Z" fill="#EBA352"/>
<path d="M109.829 63.073C109.829 63.073 113.695 65.3391 114.622 65.4808L110.55 62.9785C110.705 59.0127 109.468 57.738 107.355 58.0685C107.2 58.1157 107.045 58.1157 106.891 58.1629C109.004 57.9268 109.983 59.2016 109.829 63.073Z" fill="#EBA352"/>
<path d="M114.622 56.9825C114.622 56.9825 117.096 59.7208 119.57 59.6736V59.1542C117.096 59.2015 114.622 56.4631 114.622 56.4631C113.694 57.313 107.818 58.3516 107.097 56.9353C106.994 56.6992 106.891 56.4631 106.839 56.2743C106.787 56.5576 106.839 56.9353 107.097 57.4546C107.818 58.8238 113.694 57.7851 114.622 56.9825Z" fill="#EBA352"/>
</g>
<defs>
<clipPath id="clip0_340_8832">
<rect width="28" height="28" fill="white" transform="translate(194 43)"/>
</clipPath>
</defs>
</svg>
