<svg width="62" height="63" viewBox="0 0 62 63" fill="none" xmlns="http://www.w3.org/2000/svg">
<path d="M28.5198 47.4302C28.5198 39.7261 34.7675 33.4802 42.4721 33.4802H42.4727H42.4733H42.4739H42.4745H42.4751H42.4756H42.4762H42.4768H42.4774H42.478H42.4786H42.4792H42.4798H42.4804H42.4809H42.4815H42.4821H42.4827H42.4833H42.4839H42.4845H42.4851H42.4856H42.4862H42.4868H42.4874H42.488H42.4886H42.4892H42.4898H42.4904H42.4909H42.4915H42.4921H42.4927H42.4933H42.4939H42.4945H42.4951H42.4956H42.4962H42.4968H42.4974H42.498H42.4986H42.4992H42.4998H42.5003H42.5009H42.5015H42.5021H42.5027H42.5033H42.5039H42.5045H42.505H42.5056H42.5062H42.5068H42.5074H42.508H42.5086H42.5092H42.5097H42.5103H42.5109H42.5115H42.5121H42.5127H42.5133H42.5139H42.5144H42.515H42.5156H42.5162H42.5168H42.5174H42.518H42.5186H42.5191H42.5197H42.5203H42.5209H42.5215H42.5221H42.5227H42.5232H42.5238H42.5244H42.525H42.5256H42.5262H42.5268H42.5274H42.5279H42.5285H42.5291H42.5297H42.5303H42.5309H42.5315H42.5321H42.5326H42.5332H42.5338H42.5344H42.535H42.5356H42.5362H42.5367H42.5373H42.5379H42.5385H42.5391H42.5397H42.5403H42.5408H42.5414H42.542H42.5426H42.5432H42.5438H42.5444H42.545H42.5455H42.5461H42.5467H42.5473H42.5479H42.5485H42.5491H42.5496H42.5502H42.5508H42.5514H42.552H42.5526H42.5532H42.5537H42.5543H42.5549H42.5555H42.5561H42.5567H42.5573H42.5578H42.5584H42.559H42.5596H42.5602H42.5608H42.5614H42.5619H42.5625H42.5631H42.5637H42.5643H42.5649H42.5655H42.566H42.5666H42.5672H42.5678H42.5684H42.569H42.5696H42.5701H42.5707H42.5713H42.5719H42.5725H42.5731H42.5736H42.5742H42.5748H42.5754H42.576H42.5766H42.5772H42.5777H42.5783H42.5789H42.5795H42.5801H42.5807H42.5813H42.5818H42.5824H42.583H42.5836H42.5842H42.5848H42.5853H42.5859H42.5865H42.5871H42.5877H42.5883H42.5889H42.5894H42.59H42.5906H42.5912H42.5918H42.5924H42.5929H42.5935H42.5941H42.5947H42.5953H42.5959H42.5965H42.597H42.5976H42.5982H42.5988H42.5994H42.6H42.6005H42.6011H42.6017H42.6023H42.6029H42.6035H42.6041H42.6046H42.6052H42.6058H42.6064H42.607H42.6076H42.6081H42.6087H42.6093H42.6099H42.6105H42.6111H42.6116H42.6122H42.6128H42.6134H42.614H42.6146H42.6151H42.6157H42.6163H42.6169H42.6175H42.6181H42.6186H42.6192H42.6198H42.6204H42.621H42.6216H42.6222H42.6227H42.6233H42.6239H42.6245H42.6251H42.6257H42.6262H42.6268H42.6274H42.628H42.6286H42.6292H42.6297H42.6303H42.6309H42.6315H42.6321H42.6327H42.6332H42.6338H42.6344H42.635H42.6356H42.6361H42.6367H42.6373H42.6379H42.6385H42.6391H42.6396H42.6402H42.6408H42.6414H42.642H42.6426H42.6431H42.6437H42.6443H42.6449H42.6455H42.6461H42.6466H42.6472H42.6478H42.6484H42.649H42.6496H42.6501H42.6507H42.6513H42.6519H42.6525H42.653H42.6536H42.6542H42.6548H42.6554H42.656H42.6565H42.6571H42.6577H42.6583H42.6589H42.6595H42.66H42.6606H42.6612H42.6618H42.6624H42.6629H42.6635H42.6641H42.6647H42.6653H42.6659H42.6664H42.667H42.6676H42.6682H42.6688H42.6694H42.6699H42.6705H42.6711H42.6717H42.6723H42.6728H42.6734H42.674H42.6746H42.6752H42.6757H42.6763H42.6769H42.6775H42.6781H42.6787H42.6792H42.6798H42.6804H42.681H42.6816H42.6821H42.6827H42.6833H42.6839H42.6845H42.6851H42.6856H42.6862H42.6868H42.6874H42.688H42.6885H42.6891H42.6897H42.6903H42.6909H42.6914H42.692H42.6926H42.6932H42.6938H42.6944H42.6949H42.6955H42.6961H42.6967H42.6973H42.6978H42.6984H42.699H42.6996H42.7002H42.7007H42.7013H42.7019H42.7025H42.7031H42.7036H42.7042H42.7048H42.7054H42.706H42.7066H42.7071H42.7077H42.7083H42.7089H42.7095H42.71H42.7106H42.7112H42.7118H42.7124H42.7129H42.7135H42.7141H42.7147H42.7153H42.7158H42.7164H42.717H42.7176H42.7182H42.7187H42.7193H42.7199H42.7205H42.7211H42.7216H42.7222H42.7228H42.7234H42.724H42.7245H42.7251H42.7257H42.7263H42.7269H42.7274H42.728H42.7286H42.7292H42.7298H42.7303H42.7309H42.7315H42.7321H42.7327H42.7332H42.7338H42.7344H42.735H42.7356H42.7361H42.7367H42.7373H42.7379H42.7385H42.739H42.7396H42.7402H42.7408H42.7414H42.7419H42.7425H42.7431H42.7437H42.7442H42.7448H42.7454H42.746H42.7466H42.7471H42.7477H42.7483H42.7489H42.7495H42.75H42.7506H42.7512H42.7518H42.7524H42.7529H42.7535H42.7541H42.7547H42.7552H42.7558H42.7564H42.757H42.7576H42.7581H42.7587H42.7593H42.7599H42.7605H42.761H42.7616H42.7622H42.7628H42.7634H42.7639H42.7645H42.7651H42.7657H42.7662H42.7668H42.7674H42.768H42.7686H42.7691H42.7697H42.7703H42.7709C50.6481 33.4802 57.0397 39.8577 57.0398 47.7312C57.0398 51.9325 57.035 56.1573 57.0245 61.3802H42.4698C34.7654 61.3802 28.5198 55.1346 28.5198 47.4302Z" fill="white" stroke="#F95D7F" stroke-width="2.48"/>
<path d="M46.857 48.6152H48.148L47.7607 50.1644H46.4697L46.857 48.6152Z" fill="#2951D1"/>
<path d="M38.3362 48.6152H45.4366L45.0494 50.1644H37.8198L38.3362 48.6152Z" fill="#2951D1"/>
<path d="M38.9519 45.1304H48.7634L48.247 46.6796H38.4355L38.9519 45.1304Z" fill="#2951D1"/>
<path d="M46.9858 42.1602L44.533 52.4881L42.9838 52.4881L45.4367 42.1602L46.9858 42.1602Z" fill="#2951D1"/>
<path d="M43.1128 42.1602L40.6599 52.4881L39.1107 52.4881L41.5636 42.1602L43.1128 42.1602Z" fill="#2951D1"/>
<path d="M18.6002 16.1199C28.1876 16.1199 35.9602 23.8948 35.9602 33.4827L35.9602 33.4833L35.9602 33.4838L35.9602 33.4844L35.9602 33.485L35.9602 33.4856L35.9602 33.4862L35.9602 33.4868L35.9602 33.4873L35.9602 33.4879L35.9602 33.4885L35.9602 33.4891L35.9602 33.4897L35.9602 33.4903L35.9602 33.4908L35.9602 33.4914L35.9602 33.492L35.9602 33.4926L35.9602 33.4932L35.9602 33.4937L35.9602 33.4943L35.9602 33.4949L35.9602 33.4955L35.9602 33.4961L35.9602 33.4967L35.9602 33.4972L35.9602 33.4978L35.9602 33.4984L35.9602 33.499L35.9602 33.4996L35.9602 33.5002L35.9602 33.5007L35.9602 33.5013L35.9602 33.5019L35.9602 33.5025L35.9602 33.5031L35.9602 33.5037L35.9602 33.5042L35.9602 33.5048L35.9602 33.5054L35.9602 33.506L35.9602 33.5066L35.9602 33.5071L35.9602 33.5077L35.9602 33.5083L35.9602 33.5089L35.9602 33.5095L35.9602 33.5101L35.9602 33.5106L35.9602 33.5112L35.9602 33.5118L35.9602 33.5124L35.9602 33.513L35.9602 33.5135L35.9602 33.5141L35.9602 33.5147L35.9602 33.5153L35.9602 33.5159L35.9602 33.5165L35.9602 33.517L35.9602 33.5176L35.9602 33.5182L35.9602 33.5188L35.9602 33.5194L35.9602 33.5199L35.9602 33.5205L35.9602 33.5211L35.9602 33.5217L35.9602 33.5223L35.9602 33.5229L35.9602 33.5234L35.9602 33.524L35.9602 33.5246L35.9602 33.5252L35.9602 33.5258L35.9602 33.5263L35.9602 33.5269L35.9602 33.5275L35.9602 33.5281L35.9602 33.5287L35.9602 33.5293L35.9602 33.5298L35.9602 33.5304L35.9602 33.531L35.9602 33.5316L35.9602 33.5322L35.9602 33.5327L35.9602 33.5333L35.9602 33.5339L35.9602 33.5345L35.9602 33.5351L35.9602 33.5357L35.9602 33.5362L35.9602 33.5368L35.9602 33.5374L35.9602 33.538L35.9602 33.5386L35.9602 33.5391L35.9602 33.5397L35.9602 33.5403L35.9602 33.5409L35.9602 33.5415L35.9602 33.5421L35.9602 33.5426L35.9602 33.5432L35.9602 33.5438L35.9602 33.5444L35.9602 33.545L35.9602 33.5455L35.9602 33.5461L35.9602 33.5467L35.9602 33.5473L35.9602 33.5479L35.9602 33.5484L35.9602 33.549L35.9602 33.5496L35.9602 33.5502L35.9602 33.5508L35.9602 33.5513L35.9602 33.5519L35.9602 33.5525L35.9602 33.5531L35.9602 33.5537L35.9602 33.5543L35.9602 33.5548L35.9602 33.5554L35.9602 33.556L35.9602 33.5566L35.9602 33.5572L35.9602 33.5577L35.9602 33.5583L35.9602 33.5589L35.9602 33.5595L35.9602 33.5601L35.9602 33.5606L35.9602 33.5612L35.9602 33.5618L35.9602 33.5624L35.9602 33.563L35.9602 33.5635L35.9602 33.5641L35.9602 33.5647L35.9602 33.5653L35.9602 33.5659L35.9602 33.5665L35.9602 33.567L35.9602 33.5676L35.9602 33.5682L35.9602 33.5688L35.9602 33.5694L35.9602 33.5699L35.9602 33.5705L35.9602 33.5711L35.9602 33.5717L35.9602 33.5723L35.9602 33.5728L35.9602 33.5734L35.9602 33.574L35.9602 33.5746L35.9602 33.5752L35.9602 33.5757L35.9602 33.5763L35.9602 33.5769L35.9602 33.5775L35.9602 33.5781L35.9602 33.5786L35.9602 33.5792L35.9602 33.5798L35.9602 33.5804L35.9602 33.581L35.9602 33.5815L35.9602 33.5821L35.9602 33.5827L35.9602 33.5833L35.9602 33.5839L35.9602 33.5844L35.9602 33.585L35.9602 33.5856L35.9602 33.5862L35.9602 33.5868L35.9602 33.5873L35.9602 33.5879L35.9602 33.5885L35.9602 33.5891L35.9602 33.5897L35.9602 33.5902L35.9602 33.5908L35.9602 33.5914L35.9602 33.592L35.9602 33.5926L35.9602 33.5931L35.9602 33.5937L35.9602 33.5943L35.9602 33.5949L35.9602 33.5955L35.9602 33.596L35.9602 33.5966L35.9602 33.5972L35.9602 33.5978L35.9602 33.5984L35.9602 33.5989L35.9602 33.5995L35.9602 33.6001L35.9602 33.6007L35.9602 33.6013L35.9602 33.6018L35.9602 33.6024L35.9602 33.603L35.9602 33.6036L35.9602 33.6042L35.9602 33.6047L35.9602 33.6053L35.9602 33.6059L35.9602 33.6065L35.9602 33.6071L35.9602 33.6076L35.9602 33.6082L35.9602 33.6088L35.9602 33.6094L35.9602 33.61L35.9602 33.6105L35.9602 33.6111L35.9602 33.6117L35.9602 33.6123L35.9602 33.6128L35.9602 33.6134L35.9602 33.614L35.9602 33.6146L35.9602 33.6152L35.9602 33.6157L35.9602 33.6163L35.9602 33.6169L35.9602 33.6175L35.9602 33.6181L35.9602 33.6186L35.9602 33.6192L35.9602 33.6198L35.9602 33.6204L35.9602 33.621L35.9602 33.6215L35.9602 33.6221L35.9602 33.6227L35.9602 33.6233L35.9602 33.6239L35.9602 33.6244L35.9602 33.625L35.9602 33.6256L35.9602 33.6262L35.9602 33.6267L35.9602 33.6273L35.9602 33.6279L35.9602 33.6285L35.9602 33.6291L35.9602 33.6296L35.9602 33.6302L35.9602 33.6308L35.9602 33.6314L35.9602 33.632L35.9602 33.6325L35.9602 33.6331L35.9602 33.6337L35.9602 33.6343L35.9602 33.6348L35.9602 33.6354L35.9602 33.636L35.9602 33.6366L35.9602 33.6372L35.9602 33.6377L35.9602 33.6383L35.9602 33.6389L35.9602 33.6395L35.9602 33.6401L35.9602 33.6406L35.9602 33.6412L35.9602 33.6418L35.9602 33.6424L35.9602 33.643L35.9602 33.6435L35.9602 33.6441L35.9602 33.6447L35.9602 33.6453L35.9602 33.6458L35.9602 33.6464L35.9602 33.647L35.9602 33.6476L35.9602 33.6482L35.9602 33.6487L35.9602 33.6493L35.9602 33.6499L35.9602 33.6505L35.9602 33.651L35.9602 33.6516L35.9602 33.6522L35.9602 33.6528L35.9602 33.6534L35.9602 33.6539L35.9602 33.6545L35.9602 33.6551L35.9602 33.6557L35.9602 33.6562L35.9602 33.6568L35.9602 33.6574L35.9602 33.658L35.9602 33.6586L35.9602 33.6591L35.9602 33.6597L35.9602 33.6603L35.9602 33.6609L35.9602 33.6615L35.9602 33.662L35.9602 33.6626L35.9602 33.6632L35.9602 33.6638L35.9602 33.6643L35.9602 33.6649L35.9602 33.6655L35.9602 33.6661L35.9602 33.6667L35.9602 33.6672L35.9602 33.6678L35.9602 33.6684L35.9602 33.669L35.9602 33.6695L35.9602 33.6701L35.9602 33.6707L35.9602 33.6713L35.9602 33.6719L35.9602 33.6724L35.9602 33.673L35.9602 33.6736L35.9602 33.6742L35.9602 33.6747L35.9602 33.6753L35.9602 33.6759L35.9602 33.6765L35.9602 33.6771L35.9602 33.6776L35.9602 33.6782L35.9602 33.6788L35.9602 33.6794L35.9602 33.6799L35.9602 33.6805L35.9602 33.6811L35.9602 33.6817L35.9602 33.6822L35.9602 33.6828L35.9602 33.6834L35.9602 33.684L35.9602 33.6846L35.9602 33.6851L35.9602 33.6857L35.9602 33.6863L35.9602 33.6869L35.9602 33.6874L35.9602 33.688L35.9602 33.6886L35.9602 33.6892L35.9602 33.6898L35.9602 33.6903L35.9602 33.6909L35.9602 33.6915L35.9602 33.6921L35.9602 33.6926L35.9602 33.6932L35.9602 33.6938L35.9602 33.6944L35.9602 33.6949L35.9602 33.6955L35.9602 33.6961L35.9602 33.6967L35.9602 33.6973L35.9602 33.6978L35.9602 33.6984L35.9602 33.699L35.9602 33.6996L35.9602 33.7001L35.9602 33.7007L35.9602 33.7013L35.9602 33.7019L35.9602 33.7024L35.9602 33.703L35.9602 33.7036L35.9602 33.7042L35.9602 33.7048L35.9602 33.7053L35.9602 33.7059L35.9602 33.7065L35.9602 33.7071L35.9602 33.7076L35.9602 33.7082L35.9602 33.7088L35.9602 33.7094L35.9602 33.7099L35.9602 33.7105L35.9602 33.7111L35.9602 33.7117L35.9602 33.7122L35.9602 33.7128L35.9602 33.7134L35.9602 33.714L35.9602 33.7146L35.9602 33.7151L35.9602 33.7157L35.9602 33.7163L35.9602 33.7169L35.9602 33.7174L35.9602 33.718L35.9602 33.7186L35.9602 33.7192L35.9602 33.7197L35.9602 33.7203L35.9602 33.7209L35.9602 33.7215L35.9602 33.722L35.9602 33.7226L35.9602 33.7232L35.9602 33.7238L35.9602 33.7244L35.9602 33.7249L35.9602 33.7255L35.9602 33.7261L35.9602 33.7267L35.9602 33.7272L35.9602 33.7278L35.9602 33.7284L35.9602 33.729L35.9602 33.7295L35.9602 33.7301L35.9602 33.7307L35.9602 33.7313L35.9602 33.7318L35.9602 33.7324L35.9602 33.733L35.9602 33.7336L35.9602 33.7341L35.9602 33.7347L35.9602 33.7353L35.9602 33.7359L35.9602 33.7364L35.9602 33.737L35.9602 33.7376L35.9602 33.7382L35.9602 33.7388L35.9602 33.7393L35.9602 33.7399L35.9602 33.7405L35.9602 33.7411L35.9602 33.7416L35.9602 33.7422L35.9602 33.7428L35.9602 33.7434L35.9602 33.7439L35.9602 33.7445L35.9602 33.7451L35.9602 33.7457L35.9602 33.7462L35.9602 33.7468L35.9602 33.7474L35.9602 33.748L35.9602 33.7485L35.9602 33.7491L35.9602 33.7497L35.9602 33.7503L35.9602 33.7508L35.9602 33.7514L35.9602 33.752L35.9602 33.7526L35.9602 33.7531L35.9602 33.7537L35.9602 33.7543L35.9602 33.7549L35.9602 33.7554L35.9602 33.756L35.9602 33.7566L35.9602 33.7572L35.9602 33.7577L35.9602 33.7583L35.9602 33.7589L35.9602 33.7595L35.9602 33.76L35.9602 33.7606L35.9602 33.7612L35.9602 33.7618L35.9602 33.7623L35.9602 33.7629L35.9602 33.7635L35.9602 33.7641L35.9602 33.7646L35.9602 33.7652L35.9602 33.7658L35.9602 33.7664L35.9602 33.7669L35.9602 33.7675L35.9602 33.7681L35.9602 33.7687L35.9602 33.7692L35.9602 33.7698L35.9602 33.7704L35.9602 33.771L35.9602 33.7715L35.9602 33.7721L35.9602 33.7727L35.9602 33.7733L35.9602 33.7738L35.9602 33.7744L35.9602 33.775L35.9602 33.7756L35.9602 33.7761L35.9602 33.7767L35.9602 33.7773L35.9602 33.7779L35.9602 33.7784L35.9602 33.779C35.9602 43.5395 28.058 51.4597 18.3012 51.4599C13.0592 51.46 7.79314 51.4539 1.2402 51.4407L1.2402 33.4799C1.2402 23.8922 9.01254 16.1199 18.6002 16.1199Z" fill="white" stroke="#2951D1" stroke-width="2.48"/>
<path d="M22.63 37.0563L24.4218 35.2646C25.4076 34.5086 26.04 33.3394 26.04 32.0271C26.04 29.7477 24.132 27.8999 21.7783 27.8999C20.5052 27.8999 19.3625 28.4405 18.5816 29.2976C17.8041 28.4403 16.6685 27.8999 15.4037 27.8999C13.06 27.8999 11.16 29.7555 11.16 32.0446C11.16 33.3689 11.796 34.5481 12.7859 35.3069L18.582 40.9199L20.2795 39.3328" stroke="#F95D7F" stroke-width="1.86"/>
<path d="M26.6599 18.2847C26.6599 8.87363 34.2892 1.24 43.6994 1.24C53.1173 1.24 60.7593 8.86513 60.7599 18.2796C60.7603 23.5296 60.7544 28.779 60.7414 35.34H43.7099C34.2939 35.34 26.6599 27.7017 26.6599 18.2847Z" fill="white" stroke="#F95D7F" stroke-width="2.48"/>
<path d="M45.5274 10.0048C44.6038 9.771 43.6627 10.4948 43.6627 11.4413C43.6627 12.4755 43.2827 13.4722 42.5932 14.2472L40.5891 16.4966C40.4593 16.2991 40.2351 16.1683 39.9797 16.1683H36.0672C35.6654 16.1683 35.3398 16.4914 35.3398 16.8898V25.6209C35.3398 26.0194 35.6654 26.3424 36.0672 26.3424H39.9797C40.2737 26.3424 40.5262 26.1691 40.6409 25.9204C41.433 26.4004 42.3509 26.6599 43.2848 26.6599H50.1992C51.2557 26.6599 52.1274 25.7506 52.0778 24.7053C52.0558 24.2425 52.0798 18.027 52.0798 17.889C52.0798 16.8605 51.2362 16.0236 50.2013 16.0236L46.6057 16.0129L46.7546 15.6632C47.435 14.0651 47.3229 12.212 46.4553 10.7059C46.2528 10.354 45.9231 10.1052 45.5274 10.0048C45.1315 9.90461 45.9231 10.1052 45.5274 10.0048C44.6039 9.771 45.9231 10.1052 45.5274 10.0048ZM39.2523 24.8995H36.7946V17.6113H39.2523V24.8995ZM50.1992 17.4664C50.4341 17.4664 50.6251 17.6559 50.6251 17.8889C50.6251 18.0261 50.6237 18.3987 50.6217 18.9038C50.611 21.6927 50.6038 24.334 50.6246 24.7731C50.6321 24.9315 50.5544 25.0371 50.5075 25.086C50.4262 25.1704 50.3167 25.2169 50.1992 25.2169H43.2848C42.4606 25.2169 41.654 24.9336 41.0133 24.4193L40.7071 24.1734V18.543L43.6837 15.2023C44.6083 14.163 45.1175 12.8273 45.1175 11.4412C45.1175 11.4004 45.1736 11.3899 45.1922 11.4216C45.8364 12.5397 45.9194 13.9154 45.4144 15.1017L44.8404 16.4503C44.7456 16.6728 44.7695 16.9274 44.9036 17.1288C45.0379 17.3303 45.2649 17.4517 45.5082 17.4524L50.1992 17.4664Z" fill="#2951D1"/>
<rect x="37.2002" y="19.8398" width="4.34" height="3.1" transform="rotate(90 37.2002 19.8398)" fill="white"/>
</svg>
