<svg id="delivery" width="64" height="63" viewBox="0 0 64 63" fill="none" xmlns="http://www.w3.org/2000/svg">
<path d="M41.1184 18.2371C29.8309 18.2371 20.6803 27.3883 20.6803 38.6761L20.6803 38.6779L20.6803 38.6798L20.6803 38.6816L20.6803 38.6835L20.6803 38.6853L20.6803 38.6872L20.6803 38.689L20.6803 38.6909L20.6803 38.6927L20.6803 38.6945L20.6803 38.6964L20.6803 38.6982L20.6803 38.7001L20.6803 38.7019L20.6803 38.7038L20.6803 38.7056L20.6803 38.7075L20.6803 38.7093L20.6803 38.7111L20.6803 38.713L20.6803 38.7148L20.6803 38.7167L20.6803 38.7185L20.6803 38.7204L20.6803 38.7222L20.6803 38.724L20.6803 38.7259L20.6803 38.7277L20.6803 38.7296L20.6803 38.7314L20.6803 38.7332L20.6803 38.7351L20.6803 38.7369L20.6803 38.7388L20.6803 38.7406L20.6803 38.7425L20.6803 38.7443L20.6803 38.7461L20.6803 38.748L20.6803 38.7498L20.6803 38.7517L20.6803 38.7535L20.6803 38.7553L20.6803 38.7572L20.6803 38.759L20.6803 38.7609L20.6803 38.7627L20.6803 38.7645L20.6803 38.7664L20.6803 38.7682L20.6803 38.7701L20.6803 38.7719L20.6803 38.7737L20.6803 38.7756L20.6803 38.7774L20.6803 38.7793L20.6803 38.7811L20.6803 38.7829L20.6803 38.7848L20.6803 38.7866L20.6803 38.7884L20.6803 38.7903L20.6803 38.7921L20.6803 38.794L20.6803 38.7958L20.6803 38.7976L20.6803 38.7995L20.6803 38.8013L20.6803 38.8031L20.6803 38.805L20.6803 38.8068L20.6803 38.8087L20.6803 38.8105L20.6803 38.8123L20.6803 38.8142L20.6803 38.816L20.6803 38.8178L20.6803 38.8197L20.6803 38.8215L20.6803 38.8234L20.6803 38.8252L20.6803 38.827L20.6803 38.8289L20.6803 38.8307L20.6803 38.8325L20.6803 38.8344L20.6803 38.8362L20.6803 38.838L20.6803 38.8399L20.6803 38.8417L20.6803 38.8435L20.6803 38.8454L20.6803 38.8472L20.6803 38.849L20.6803 38.8509L20.6803 38.8527L20.6803 38.8545L20.6803 38.8564L20.6803 38.8582L20.6803 38.86L20.6803 38.8619L20.6803 38.8637L20.6803 38.8655L20.6803 38.8674L20.6803 38.8692L20.6803 38.871L20.6803 38.8729L20.6803 38.8747L20.6803 38.8765L20.6803 38.8784L20.6803 38.8802L20.6803 38.882L20.6803 38.8839L20.6803 38.8857L20.6803 38.8875L20.6803 38.8894L20.6803 38.8912L20.6803 38.893L20.6803 38.8949L20.6803 38.8967L20.6803 38.8985L20.6803 38.9004L20.6803 38.9022L20.6803 38.904L20.6803 38.9059L20.6803 38.9077L20.6803 38.9095L20.6803 38.9113L20.6803 38.9132L20.6803 38.915L20.6803 38.9168L20.6803 38.9187L20.6803 38.9205L20.6803 38.9223L20.6803 38.9242L20.6803 38.926L20.6803 38.9278L20.6803 38.9296L20.6803 38.9315L20.6803 38.9333L20.6803 38.9351L20.6803 38.937L20.6803 38.9388L20.6803 38.9406L20.6803 38.9424L20.6803 38.9443L20.6803 38.9461L20.6803 38.9479L20.6803 38.9498L20.6803 38.9516L20.6803 38.9534L20.6803 38.9552L20.6803 38.9571L20.6803 38.9589L20.6803 38.9607L20.6803 38.9625L20.6803 38.9644L20.6803 38.9662L20.6803 38.968L20.6803 38.9699L20.6803 38.9717L20.6803 38.9735L20.6803 38.9753L20.6803 38.9772L20.6803 38.979L20.6803 38.9808L20.6803 38.9826L20.6803 38.9845L20.6803 38.9863L20.6803 38.9881L20.6803 38.9899L20.6803 38.9918L20.6803 38.9936L20.6803 38.9954L20.6803 38.9972L20.6803 38.9991L20.6803 39.0009L20.6803 39.0027L20.6803 39.0045L20.6803 39.0064L20.6803 39.0082L20.6803 39.01L20.6803 39.0118L20.6803 39.0137L20.6803 39.0155L20.6803 39.0173L20.6803 39.0191L20.6803 39.021L20.6803 39.0228L20.6803 39.0246L20.6803 39.0264L20.6803 39.0282L20.6803 39.0301L20.6803 39.0319L20.6803 39.0337L20.6803 39.0355L20.6803 39.0374L20.6803 39.0392L20.6803 39.041L20.6803 39.0428L20.6803 39.0446L20.6803 39.0465L20.6803 39.0483L20.6803 39.0501L20.6803 39.0519L20.6803 39.0538L20.6803 39.0556L20.6803 39.0574L20.6803 39.0592L20.6803 39.061L20.6803 39.0629L20.6803 39.0647L20.6803 39.0665L20.6803 39.0683L20.6803 39.0701L20.6803 39.072L20.6803 39.0738L20.6803 39.0756L20.6803 39.0774L20.6803 39.0792L20.6803 39.0811L20.6803 39.0829L20.6803 39.0847L20.6803 39.0865L20.6803 39.0883L20.6803 39.0901L20.6803 39.092L20.6803 39.0938L20.6803 39.0956L20.6803 39.0974L20.6803 39.0992L20.6803 39.1011L20.6803 39.1029L20.6803 39.1047L20.6803 39.1065L20.6803 39.1083L20.6803 39.1101L20.6803 39.112L20.6803 39.1138L20.6803 39.1156L20.6803 39.1174L20.6803 39.1192L20.6803 39.121L20.6803 39.1229L20.6803 39.1247L20.6803 39.1265L20.6803 39.1283L20.6803 39.1301L20.6803 39.1319L20.6803 39.1338L20.6803 39.1356L20.6803 39.1374L20.6803 39.1392L20.6803 39.141L20.6803 39.1428L20.6803 39.1447L20.6803 39.1465L20.6803 39.1483L20.6803 39.1501L20.6803 39.1519L20.6803 39.1537L20.6803 39.1555L20.6803 39.1574L20.6803 39.1592L20.6803 39.161L20.6803 39.1628L20.6803 39.1646L20.6803 39.1664L20.6803 39.1682L20.6803 39.17L20.6803 39.1719L20.6803 39.1737L20.6803 39.1755L20.6803 39.1773L20.6803 39.1791L20.6803 39.1809L20.6803 39.1827L20.6803 39.1846L20.6803 39.1864L20.6803 39.1882L20.6803 39.19L20.6803 39.1918L20.6803 39.1936L20.6803 39.1954L20.6803 39.1972L20.6803 39.199L20.6803 39.2009L20.6803 39.2027L20.6803 39.2045L20.6803 39.2063L20.6803 39.2081L20.6803 39.2099L20.6803 39.2117L20.6803 39.2135L20.6803 39.2153L20.6803 39.2172L20.6803 39.219L20.6803 39.2208L20.6803 39.2226L20.6803 39.2244L20.6803 39.2262L20.6803 39.228L20.6803 39.2298L20.6803 39.2316L20.6803 39.2334L20.6803 39.2352L20.6803 39.2371L20.6803 39.2389L20.6803 39.2407L20.6803 39.2425L20.6803 39.2443L20.6803 39.2461L20.6803 39.2479L20.6803 39.2497L20.6803 39.2515L20.6803 39.2533L20.6803 39.2551L20.6803 39.2569L20.6803 39.2587L20.6803 39.2606L20.6803 39.2624L20.6803 39.2642L20.6803 39.266L20.6803 39.2678L20.6803 39.2696L20.6803 39.2714L20.6803 39.2732L20.6803 39.275L20.6803 39.2768L20.6803 39.2786L20.6803 39.2804L20.6803 39.2822L20.6803 39.284L20.6803 39.2858L20.6803 39.2876L20.6803 39.2895L20.6803 39.2913L20.6803 39.2931L20.6803 39.2949L20.6803 39.2967L20.6803 39.2985L20.6803 39.3003L20.6803 39.3021L20.6803 39.3039L20.6803 39.3057L20.6803 39.3075L20.6803 39.3093L20.6803 39.3111L20.6803 39.3129L20.6803 39.3147L20.6803 39.3165L20.6803 39.3183L20.6803 39.3201L20.6803 39.3219L20.6803 39.3237L20.6803 39.3255L20.6803 39.3273L20.6803 39.3291L20.6803 39.3309L20.6803 39.3327L20.6803 39.3345L20.6803 39.3363L20.6803 39.3381L20.6803 39.3399L20.6803 39.3417L20.6803 39.3435L20.6803 39.3454L20.6803 39.3472L20.6803 39.349L20.6803 39.3508L20.6803 39.3526L20.6803 39.3544L20.6803 39.3562L20.6803 39.358L20.6803 39.3598L20.6803 39.3616L20.6803 39.3634L20.6803 39.3652L20.6803 39.367L20.6803 39.3688L20.6803 39.3706L20.6803 39.3724L20.6803 39.3742L20.6803 39.376L20.6803 39.3778L20.6803 39.3795L20.6803 39.3813L20.6803 39.3831L20.6803 39.3849L20.6803 39.3867L20.6803 39.3885L20.6803 39.3903L20.6803 39.3921L20.6803 39.3939L20.6803 39.3957L20.6803 39.3975L20.6803 39.3993L20.6803 39.4011L20.6803 39.4029L20.6803 39.4047L20.6803 39.4065L20.6803 39.4083L20.6803 39.4101L20.6803 39.4119L20.6803 39.4137L20.6803 39.4155L20.6803 39.4173L20.6803 39.4191L20.6803 39.4209L20.6803 39.4227L20.6803 39.4245L20.6803 39.4263L20.6803 39.4281L20.6803 39.4299L20.6803 39.4317L20.6803 39.4335L20.6803 39.4352L20.6803 39.437L20.6803 39.4388L20.6803 39.4406L20.6803 39.4424L20.6803 39.4442L20.6803 39.446L20.6803 39.4478L20.6803 39.4496L20.6803 39.4514L20.6803 39.4532L20.6803 39.455L20.6803 39.4568L20.6803 39.4586L20.6803 39.4604L20.6803 39.4622L20.6803 39.464L20.6803 39.4657L20.6803 39.4675L20.6803 39.4693L20.6803 39.4711L20.6803 39.4729L20.6803 39.4747L20.6803 39.4765L20.6803 39.4783L20.6803 39.4801L20.6803 39.4819L20.6803 39.4837L20.6803 39.4855L20.6803 39.4872L20.6803 39.489L20.6803 39.4908L20.6803 39.4926L20.6803 39.4944L20.6803 39.4962L20.6803 39.498L20.6803 39.4998L20.6803 39.5016L20.6803 39.5034L20.6803 39.5051L20.6803 39.5069L20.6803 39.5087L20.6803 39.5105L20.6803 39.5123L20.6803 39.5141L20.6803 39.5159L20.6803 39.5177L20.6803 39.5195L20.6803 39.5213L20.6803 39.523L20.6803 39.5248L20.6803 39.5266L20.6803 39.5284L20.6803 39.5302L20.6803 39.532L20.6803 39.5338L20.6803 39.5356L20.6803 39.5373L20.6803 39.5391L20.6803 39.5409L20.6803 39.5427L20.6803 39.5445L20.6803 39.5463L20.6803 39.5481L20.6803 39.5499L20.6803 39.5516L20.6803 39.5534L20.6803 39.5552L20.6803 39.557L20.6803 39.5588L20.6803 39.5606L20.6803 39.5624L20.6803 39.5641L20.6803 39.5659L20.6803 39.5677L20.6803 39.5695L20.6803 39.5713L20.6803 39.5731L20.6803 39.5749L20.6803 39.5766L20.6803 39.5784L20.6803 39.5802L20.6803 39.582L20.6803 39.5838L20.6803 39.5856L20.6803 39.5873L20.6803 39.5891L20.6803 39.5909L20.6803 39.5927L20.6803 39.5945L20.6803 39.5963L20.6803 39.598L20.6803 39.5998L20.6803 39.6016L20.6803 39.6034L20.6803 39.6052C20.6803 51.4166 30.2426 61.0006 42.0481 61C48.0458 60.9997 54.1116 60.9924 61.5566 60.9772L61.5566 38.6753C61.5566 27.3876 52.4061 18.2371 41.1184 18.2371Z" stroke="#2951D1" stroke-width="3.7732"/>
<path d="M23.5169 1.8866C35.1453 1.8866 44.5773 11.3134 44.5773 22.9404C44.5773 34.5777 35.1553 44.0198 23.5233 44.0206C17.0231 44.021 10.5236 44.0139 2.44325 43.998L2.44325 22.9536C2.44325 11.3193 11.8812 1.8866 23.5169 1.8866Z" stroke="#F95D7F" stroke-width="3.7732"/>
<mask id="mask0_340_8690" style="mask-type:alpha" maskUnits="userSpaceOnUse" x="18" y="30" width="47" height="33">
<rect x="18.7937" y="30.8144" width="45.2784" height="32.1218" fill="#D9D9D9"/>
</mask>
<g mask="url(#mask0_340_8690)">
<path d="M41.2601 18.4247C29.8944 18.4247 20.6803 27.6402 20.6803 39.0063L20.6803 39.0078L20.6803 39.0092L20.6803 39.0106L20.6803 39.012L20.6803 39.0134L20.6803 39.0149L20.6803 39.0163L20.6803 39.0177L20.6803 39.0191L20.6803 39.0205L20.6803 39.022L20.6803 39.0234L20.6803 39.0248L20.6803 39.0262L20.6803 39.0276L20.6803 39.0291L20.6803 39.0305L20.6803 39.0319L20.6803 39.0333L20.6803 39.0347L20.6803 39.0361L20.6803 39.0376L20.6803 39.039L20.6803 39.0404L20.6803 39.0418L20.6803 39.0432L20.6803 39.0447L20.6803 39.0461L20.6803 39.0475L20.6803 39.0489L20.6803 39.0503L20.6803 39.0517L20.6803 39.0532L20.6803 39.0546L20.6803 39.056L20.6803 39.0574L20.6803 39.0588L20.6803 39.0603L20.6803 39.0617L20.6803 39.0631L20.6803 39.0645L20.6803 39.0659L20.6803 39.0673L20.6803 39.0688L20.6803 39.0702L20.6803 39.0716L20.6803 39.073L20.6803 39.0744L20.6803 39.0758L20.6803 39.0773L20.6803 39.0787L20.6803 39.0801L20.6803 39.0815L20.6803 39.0829L20.6803 39.0843L20.6803 39.0858L20.6803 39.0872L20.6803 39.0886L20.6803 39.09L20.6803 39.0914L20.6803 39.0928L20.6803 39.0943L20.6803 39.0957L20.6803 39.0971L20.6803 39.0985L20.6803 39.0999L20.6803 39.1013L20.6803 39.1027L20.6803 39.1042L20.6803 39.1056L20.6803 39.107L20.6803 39.1084L20.6803 39.1098L20.6803 39.1112L20.6803 39.1127L20.6803 39.1141L20.6803 39.1155L20.6803 39.1169L20.6803 39.1183L20.6803 39.1197L20.6803 39.1211L20.6803 39.1226L20.6803 39.124L20.6803 39.1254L20.6803 39.1268L20.6803 39.1282L20.6803 39.1296L20.6803 39.131L20.6803 39.1325L20.6803 39.1339L20.6803 39.1353L20.6803 39.1367L20.6803 39.1381L20.6803 39.1395L20.6803 39.1409L20.6803 39.1423L20.6803 39.1438L20.6803 39.1452L20.6803 39.1466L20.6803 39.148L20.6803 39.1494L20.6803 39.1508L20.6803 39.1522L20.6803 39.1536L20.6803 39.1551L20.6803 39.1565L20.6803 39.1579L20.6803 39.1593L20.6803 39.1607L20.6803 39.1621L20.6803 39.1635L20.6803 39.1649L20.6803 39.1664L20.6803 39.1678L20.6803 39.1692L20.6803 39.1706L20.6803 39.172L20.6803 39.1734L20.6803 39.1748L20.6803 39.1762L20.6803 39.1777L20.6803 39.1791L20.6803 39.1805L20.6803 39.1819L20.6803 39.1833L20.6803 39.1847L20.6803 39.1861L20.6803 39.1875L20.6803 39.1889L20.6803 39.1904L20.6803 39.1918L20.6803 39.1932L20.6803 39.1946L20.6803 39.196L20.6803 39.1974L20.6803 39.1988L20.6803 39.2002L20.6803 39.2016L20.6803 39.203L20.6803 39.2045L20.6803 39.2059L20.6803 39.2073L20.6803 39.2087L20.6803 39.2101L20.6803 39.2115L20.6803 39.2129L20.6803 39.2143L20.6803 39.2157L20.6803 39.2171L20.6803 39.2186L20.6803 39.22L20.6803 39.2214L20.6803 39.2228L20.6803 39.2242L20.6803 39.2256L20.6803 39.227L20.6803 39.2284L20.6803 39.2298L20.6803 39.2312L20.6803 39.2326L20.6803 39.2341L20.6803 39.2355L20.6803 39.2369L20.6803 39.2383L20.6803 39.2397L20.6803 39.2411L20.6803 39.2425L20.6803 39.2439L20.6803 39.2453L20.6803 39.2467L20.6803 39.2481L20.6803 39.2495L20.6803 39.2509L20.6803 39.2524L20.6803 39.2538L20.6803 39.2552L20.6803 39.2566L20.6803 39.258L20.6803 39.2594L20.6803 39.2608L20.6803 39.2622L20.6803 39.2636L20.6803 39.265L20.6803 39.2664L20.6803 39.2678L20.6803 39.2692L20.6803 39.2707L20.6803 39.2721L20.6803 39.2735L20.6803 39.2749L20.6803 39.2763L20.6803 39.2777L20.6803 39.2791L20.6803 39.2805L20.6803 39.2819L20.6803 39.2833L20.6803 39.2847L20.6803 39.2861L20.6803 39.2875L20.6803 39.2889L20.6803 39.2903L20.6803 39.2917L20.6803 39.2931L20.6803 39.2946L20.6803 39.296L20.6803 39.2974L20.6803 39.2988L20.6803 39.3002L20.6803 39.3016L20.6803 39.303L20.6803 39.3044L20.6803 39.3058L20.6803 39.3072L20.6803 39.3086L20.6803 39.31L20.6803 39.3114L20.6803 39.3128L20.6803 39.3142L20.6803 39.3156L20.6803 39.317L20.6803 39.3184L20.6803 39.3198L20.6803 39.3212L20.6803 39.3226L20.6803 39.324L20.6803 39.3255L20.6803 39.3269L20.6803 39.3283L20.6803 39.3297L20.6803 39.3311L20.6803 39.3325L20.6803 39.3339L20.6803 39.3353L20.6803 39.3367L20.6803 39.3381L20.6803 39.3395L20.6803 39.3409L20.6803 39.3423L20.6803 39.3437L20.6803 39.3451L20.6803 39.3465L20.6803 39.3479L20.6803 39.3493L20.6803 39.3507L20.6803 39.3521L20.6803 39.3535L20.6803 39.3549L20.6803 39.3563L20.6803 39.3577L20.6803 39.3591L20.6803 39.3605L20.6803 39.3619L20.6803 39.3633L20.6803 39.3647L20.6803 39.3661L20.6803 39.3675L20.6803 39.3689L20.6803 39.3703L20.6803 39.3717L20.6803 39.3731L20.6803 39.3745L20.6803 39.3759L20.6803 39.3773L20.6803 39.3787L20.6803 39.3801L20.6803 39.3815L20.6803 39.3829L20.6803 39.3843L20.6803 39.3857L20.6803 39.3871L20.6803 39.3885L20.6803 39.3899L20.6803 39.3913L20.6803 39.3927L20.6803 39.3941L20.6803 39.3955L20.6803 39.3969L20.6803 39.3983L20.6803 39.3997L20.6803 39.4011L20.6803 39.4025L20.6803 39.4039L20.6803 39.4053L20.6803 39.4067L20.6803 39.4081L20.6803 39.4095L20.6803 39.4109L20.6803 39.4123L20.6803 39.4137L20.6803 39.4151L20.6803 39.4165L20.6803 39.4179L20.6803 39.4193L20.6803 39.4207L20.6803 39.4221L20.6803 39.4235L20.6803 39.4249L20.6803 39.4263L20.6803 39.4277L20.6803 39.4291L20.6803 39.4305L20.6803 39.4319L20.6803 39.4333L20.6803 39.4347L20.6803 39.4361L20.6803 39.4375L20.6803 39.4389L20.6803 39.4403L20.6803 39.4417L20.6803 39.4431L20.6803 39.4445L20.6803 39.4459L20.6803 39.4473L20.6803 39.4487L20.6803 39.4501L20.6803 39.4515L20.6803 39.4529L20.6803 39.4543L20.6803 39.4557L20.6803 39.4571L20.6803 39.4585L20.6803 39.4599L20.6803 39.4613L20.6803 39.4627L20.6803 39.4641L20.6803 39.4654L20.6803 39.4668L20.6803 39.4682L20.6803 39.4696L20.6803 39.471L20.6803 39.4724L20.6803 39.4738L20.6803 39.4752L20.6803 39.4766L20.6803 39.478L20.6803 39.4794L20.6803 39.4808L20.6803 39.4822L20.6803 39.4836L20.6803 39.485L20.6803 39.4864L20.6803 39.4878L20.6803 39.4892L20.6803 39.4906L20.6803 39.492L20.6803 39.4934L20.6803 39.4948L20.6803 39.4961L20.6803 39.4975L20.6803 39.4989L20.6803 39.5003L20.6803 39.5017L20.6803 39.5031L20.6803 39.5045L20.6803 39.5059L20.6803 39.5073L20.6803 39.5087L20.6803 39.5101L20.6803 39.5115L20.6803 39.5129L20.6803 39.5143L20.6803 39.5157L20.6803 39.5171L20.6803 39.5184L20.6803 39.5198L20.6803 39.5212L20.6803 39.5226L20.6803 39.524L20.6803 39.5254L20.6803 39.5268L20.6803 39.5282L20.6803 39.5296L20.6803 39.531L20.6803 39.5324L20.6803 39.5338L20.6803 39.5352L20.6803 39.5366L20.6803 39.5379L20.6803 39.5393L20.6803 39.5407L20.6803 39.5421L20.6803 39.5435L20.6803 39.5449L20.6803 39.5463L20.6803 39.5477L20.6803 39.5491L20.6803 39.5505L20.6803 39.5519L20.6803 39.5533L20.6803 39.5546L20.6803 39.556L20.6803 39.5574L20.6803 39.5588L20.6803 39.5602L20.6803 39.5616L20.6803 39.563L20.6803 39.5644L20.6803 39.5658L20.6803 39.5672L20.6803 39.5686L20.6803 39.5699L20.6803 39.5713L20.6803 39.5727L20.6803 39.5741L20.6803 39.5755L20.6803 39.5769L20.6803 39.5783L20.6803 39.5797L20.6803 39.5811L20.6803 39.5825L20.6803 39.5838L20.6803 39.5852L20.6803 39.5866L20.6803 39.588L20.6803 39.5894L20.6803 39.5908L20.6803 39.5922L20.6803 39.5936L20.6803 39.595L20.6803 39.5964L20.6803 39.5977L20.6803 39.5991L20.6803 39.6005L20.6803 39.6019L20.6803 39.6033L20.6803 39.6047L20.6803 39.6061L20.6803 39.6075L20.6803 39.6088L20.6803 39.6102L20.6803 39.6116L20.6803 39.613L20.6803 39.6144L20.6803 39.6158L20.6803 39.6172L20.6803 39.6186L20.6803 39.62L20.6803 39.6213L20.6803 39.6227L20.6803 39.6241L20.6803 39.6255L20.6803 39.6269L20.6803 39.6283L20.6803 39.6297L20.6803 39.6311L20.6803 39.6324L20.6803 39.6338L20.6803 39.6352L20.6803 39.6366L20.6803 39.638L20.6803 39.6394L20.6803 39.6408L20.6803 39.6421L20.6803 39.6435L20.6803 39.6449L20.6803 39.6463L20.6803 39.6477L20.6803 39.6491L20.6803 39.6505L20.6803 39.6518L20.6803 39.6532L20.6803 39.6546L20.6803 39.656L20.6803 39.6574L20.6803 39.6588L20.6803 39.6602L20.6803 39.6615L20.6803 39.6629L20.6803 39.6643L20.6803 39.6657L20.6803 39.6671L20.6803 39.6685L20.6803 39.6699L20.6803 39.6712L20.6803 39.6726L20.6803 39.674L20.6803 39.6754L20.6803 39.6768L20.6803 39.6782L20.6803 39.6796L20.6803 39.6809L20.6803 39.6823L20.6803 39.6837L20.6803 39.6851L20.6803 39.6865L20.6803 39.6879L20.6803 39.6892L20.6803 39.6906L20.6803 39.692L20.6803 39.6934L20.6803 39.6948L20.6803 39.6962L20.6803 39.6975L20.6803 39.6989L20.6803 39.7003L20.6803 39.7017L20.6803 39.7031L20.6803 39.7045L20.6803 39.7058L20.6803 39.7072L20.6803 39.7086L20.6803 39.71L20.6803 39.7114L20.6803 39.7128L20.6803 39.7141L20.6803 39.7155L20.6803 39.7169L20.6803 39.7183L20.6803 39.7197L20.6803 39.721L20.6803 39.7224L20.6803 39.7238C20.6803 51.4971 30.2117 61.0499 41.9792 61.0496C48.0889 61.0495 54.2526 61.0422 61.8398 61.0269L61.8398 39.0044C61.8398 27.6385 52.6259 18.4247 41.2601 18.4247Z" stroke="#2951D1" stroke-width="3.7732"/>
</g>
<path d="M36.4023 38.3608C40.8044 44.0206 45.2065 38.3608 45.2065 38.3608" stroke="#2951D1" stroke-width="2.51546" stroke-linecap="round" stroke-linejoin="round"/>
<circle r="2.20103" transform="matrix(-1 0 0 1 15.3353 31.7577)" fill="#2951D1"/>
<circle r="2.20103" transform="matrix(-1 0 0 1 32.3146 31.7577)" fill="#2951D1"/>
<path d="M19.4229 36.4742C23.8249 42.134 28.227 36.4742 28.227 36.4742" stroke="#F95D7F" stroke-width="2.51546" stroke-linecap="round" stroke-linejoin="round"/>
<circle r="2.20103" transform="matrix(-1 0 0 1 49.2938 31.7577)" fill="#2951D1"/>
</svg>
