<svg width="13" height="23" viewBox="0 0 13 23" fill="none" xmlns="http://www.w3.org/2000/svg">
<path d="M8.02989 23H4.36199C3.74933 23 3.25096 22.4995 3.25096 21.8843V13.5766H1.11103C0.498373 13.5766 0 13.076 0 12.4609V8.90102C0 8.2858 0.498373 7.78535 1.11103 7.78535H3.25096V6.00269C3.25096 4.23512 3.80368 2.73129 4.84918 1.65404C5.8994 0.571877 7.36709 0 9.09357 0L11.8909 0.00456236C12.5025 0.00561523 13 0.506073 13 1.12024V4.42551C13 5.04073 12.5018 5.54118 11.8893 5.54118L10.0059 5.54189C9.43153 5.54189 9.28526 5.65752 9.25399 5.69297C9.20244 5.75175 9.1411 5.91793 9.1411 6.3768V7.78517H11.7478C11.944 7.78517 12.1341 7.83378 12.2975 7.92538C12.65 8.12314 12.8691 8.49708 12.8691 8.9012L12.8677 12.4611C12.8677 13.076 12.3693 13.5764 11.7567 13.5764H9.1411V21.8843C9.1411 22.4995 8.64255 23 8.02989 23ZM4.5937 21.6516H7.79818V12.9729C7.79818 12.5622 8.13107 12.2281 8.53998 12.2281H11.525L11.5262 9.13371H8.5398C8.1309 9.13371 7.79818 8.7996 7.79818 8.38881V6.3768C7.79818 5.85002 7.85148 5.25095 8.24745 4.80067C8.72591 4.25635 9.47993 4.19353 10.0056 4.19353L11.6573 4.19283V1.35257L9.09252 1.34836C6.31792 1.34836 4.5937 3.1319 4.5937 6.00269V8.38881C4.5937 8.79942 4.26099 9.13371 3.85208 9.13371H1.34274V12.2281H3.85208C4.26099 12.2281 4.5937 12.5622 4.5937 12.9729V21.6516ZM11.8883 1.35292H11.8884H11.8883Z" fill="#F6F749"/>
</svg>
