<svg width="23" height="20" viewBox="0 0 23 20" fill="none" xmlns="http://www.w3.org/2000/svg">
<path d="M23 11C19.955 20.135 20.5 18.58 20 20H0L3 11H23Z" fill="#FFDE76"/>
<path d="M23.0001 11L20.3351 19H10.4301C9.4673 18.9994 8.51839 18.7701 7.6615 18.3311C6.80461 17.892 6.06424 17.2557 5.50134 16.4746C4.93843 15.6935 4.56909 14.7898 4.42371 13.838C4.27833 12.8863 4.36107 11.9136 4.66512 11H23.0001Z" fill="#FFDE76"/>
<path d="M5 3.5V11H3L0 20V3.5H5Z" fill="#FFCC66"/>
<path d="M4 3.5V8.84C4 9.14765 3.87779 9.4427 3.66024 9.66024C3.4427 9.87779 3.14765 10 2.84 10C2.59572 9.99993 2.3576 10.0767 2.15931 10.2193C1.96101 10.362 1.81258 10.5634 1.735 10.795L0 16V3.5H4Z" fill="#FFCC66"/>
<path d="M20 3V11H8V0H17L20 3Z" fill="#EDEBF2"/>
<path d="M20 3H17V0L20 3Z" fill="#EDEBF2"/>
<path d="M20 3.5V10C13.435 10 9.5 5.145 9.5 0H16.5V3C16.5 3.13261 16.5527 3.25979 16.6464 3.35355C16.7402 3.44732 16.8674 3.5 17 3.5H20Z" fill="#EDEBF2"/>
<path d="M5 1.5H8V11H5V1.5Z" fill="#82BCF4"/>
<path d="M7 1.5C7 10.42 6.95 10 7 10C6.46957 10 5.96086 9.78929 5.58579 9.41421C5.21071 9.03914 5 8.53043 5 8V1.5H7Z" fill="#82BCF4"/>
<path d="M20 3H17V0L20 3Z" fill="#82BCF4"/>
<path d="M15 4.5H10C9.86739 4.5 9.74021 4.55268 9.64645 4.64645C9.55268 4.74021 9.5 4.86739 9.5 5C9.5 5.13261 9.55268 5.25979 9.64645 5.35355C9.74021 5.44732 9.86739 5.5 10 5.5H15C15.1326 5.5 15.2598 5.44732 15.3536 5.35355C15.4473 5.25979 15.5 5.13261 15.5 5C15.5 4.86739 15.4473 4.74021 15.3536 4.64645C15.2598 4.55268 15.1326 4.5 15 4.5Z" fill="#7C7D7D"/>
<path d="M13 6.5H10C9.86739 6.5 9.74021 6.55268 9.64645 6.64645C9.55268 6.74021 9.5 6.86739 9.5 7C9.5 7.13261 9.55268 7.25979 9.64645 7.35355C9.74021 7.44732 9.86739 7.5 10 7.5H13C13.1326 7.5 13.2598 7.44732 13.3536 7.35355C13.4473 7.25979 13.5 7.13261 13.5 7C13.5 6.86739 13.4473 6.74021 13.3536 6.64645C13.2598 6.55268 13.1326 6.5 13 6.5Z" fill="#7C7D7D"/>
</svg>
