<svg id="group-410" width="62" height="70" viewBox="0 0 62 70" fill="none" xmlns="http://www.w3.org/2000/svg">
<path d="M44.9082 24.3865C52.7797 32.2581 52.7833 45.0242 44.9126 52.8949C37.0353 60.7722 24.2657 60.7862 16.3909 52.9125C11.9985 48.5206 7.61186 44.1242 2.13684 38.6274L16.3822 24.3821C24.2578 16.5065 37.0318 16.5101 44.9082 24.3865Z" stroke="#2951D1" stroke-width="3"/>
<path d="M16.4485 52.9698C8.57696 45.0983 8.57335 32.3322 16.4441 24.4614C24.3214 16.5842 37.0909 16.5701 44.9658 24.4439C49.3582 28.8357 53.7448 33.2322 59.2199 38.7289L44.9745 52.9742C37.0989 60.8498 24.3249 60.8462 16.4485 52.9698Z" stroke="#F95D7F" stroke-width="3"/>
<line x1="14.8819" y1="18.1115" x2="7.11174" y2="11.1184" stroke="#2951D1" stroke-width="3" stroke-linecap="round"/>
<line x1="30.5002" y1="10.5" x2="30.5002" y2="1.5" stroke="#2951D1" stroke-width="3" stroke-linecap="round"/>
<line x1="1.5" y1="-1.5" x2="11.9536" y2="-1.5" transform="matrix(0.743294 -0.668965 -0.668965 -0.743294 45.0002 18)" stroke="#2951D1" stroke-width="3" stroke-linecap="round"/>
<circle r="8.65251" transform="matrix(-1 0 0 1 30.0946 38.6877)" stroke="#2951D1" stroke-width="3.56183"/>
<circle r="2.96819" transform="matrix(-1 0 0 1 24.0035 33.0034)" fill="#F4F7FF"/>
</svg>
