<svg id="group-429" width="59" height="60" viewBox="0 0 59 60" fill="none" xmlns="http://www.w3.org/2000/svg">
<path d="M57.5 29.6916C57.5 14.2365 44.971 1.7002 29.5171 1.7002C14.0515 1.7002 1.50126 14.2219 1.50022 29.6832C1.49964 38.2842 1.5094 46.8839 1.53107 57.7H29.5001C44.9634 57.7 57.5 45.1561 57.5 29.6916Z" stroke="#2951D1" stroke-width="3"/>
<path d="M43.5 36.4935C43.5 24.9021 34.1032 15.5 22.5129 15.5C10.9132 15.5 1.5008 24.8916 1.50002 36.4872C1.49958 42.9525 1.50681 49.417 1.52284 57.5H22.5C34.0974 57.5 43.5 48.0921 43.5 36.4935Z" stroke="#F95D7F" stroke-width="3"/>
<path d="M27.2998 44.3959C27.2998 37.2754 21.5274 31.5 14.4081 31.5C7.28171 31.5 1.5003 37.2697 1.49982 44.3918C1.49955 48.3845 1.50385 52.3767 1.51337 57.3H14.3998C21.5237 57.3 27.2998 51.5209 27.2998 44.3959Z" stroke="#2951D1" stroke-width="3"/>
</svg>
