<svg width="62" height="62" viewBox="0 0 62 62" fill="none" xmlns="http://www.w3.org/2000/svg">
<path d="M30.9911 1.5C14.708 1.5 1.5 14.7002 1.5 30.9822C1.5 47.2762 14.6925 60.4989 30.9822 60.5C40.0408 60.5006 49.0981 60.4903 60.5 60.4674L60.5 31C60.5 14.7082 47.284 1.5 30.9911 1.5Z" stroke="#F95D7F" stroke-width="3"/>
<path d="M40.5259 29.6925H32.3071V21.4738C32.3071 20.7518 31.7218 20.1665 30.9998 20.1665C30.2778 20.1665 29.6925 20.7518 29.6925 21.4738V29.6925H21.4738C20.7518 29.6925 20.1665 30.2778 20.1665 30.9998C20.1665 31.7218 20.7518 32.3071 21.4738 32.3071H29.6925V40.5259C29.6925 41.2479 30.2778 41.8332 30.9998 41.8332C31.7218 41.8332 32.3071 41.2479 32.3071 40.5259V32.3071H40.5259C41.2479 32.3071 41.8332 31.7218 41.8332 30.9998C41.8332 30.2778 41.2479 29.6925 40.5259 29.6925Z" fill="#2951D1" stroke="#2951D1"/>
</svg>
