<svg width="196" height="49" viewBox="0 0 196 49" fill="none" xmlns="http://www.w3.org/2000/svg">
<path d="M24.479 16.6721C23.3569 14.6286 21.8376 13.0078 19.9259 11.8097C18.0126 10.6132 15.8583 10.0142 13.4679 10.0142C11.5546 10.0142 9.79757 10.4002 8.19678 11.174C6.59599 11.9478 5.28112 13.0428 4.25049 14.4605C4.13413 14.6203 4.02442 14.7834 3.91803 14.9498V0.221191H0V36.5359H3.91803V32.0746C4.01611 32.2294 4.11585 32.3825 4.22223 32.5306C5.23457 33.9483 6.53116 35.0633 8.11367 35.8736C9.69451 36.684 11.4798 37.0884 13.4679 37.0884C15.8583 37.0884 18.021 36.491 19.9525 35.2929C21.8841 34.0964 23.4018 32.4856 24.5056 30.4588C25.6093 28.4336 26.1612 26.1489 26.1612 23.6062C26.1612 21.0635 25.5994 18.7172 24.4773 16.6721H24.479ZM20.9183 28.6616C20.1088 30.1526 19.005 31.3141 17.607 32.1428C16.209 32.9715 14.59 33.3859 12.7498 33.3859C10.9096 33.3859 9.41857 32.9715 8.05881 32.1428C6.69739 31.3141 5.6302 30.1543 4.85723 28.6616C4.08426 27.1706 3.69861 25.4666 3.69861 23.5513C3.69861 21.636 4.08592 19.932 4.85723 18.441C5.6302 16.95 6.7057 15.7885 8.08541 14.9598C9.46511 14.1311 11.0559 13.7167 12.8595 13.7167C14.6631 13.7167 16.2539 14.1311 17.6336 14.9598C19.0133 15.7885 20.1071 16.9483 20.9167 18.441C21.7262 19.932 22.1318 21.6376 22.1318 23.5513C22.1318 25.465 21.7262 27.1706 20.9167 28.6616H20.9183Z" fill="white"/>
<path d="M31.6816 36.5359V0.221191H35.5997V36.5359H31.6816Z" fill="white"/>
<path d="M44.8172 5.46976C44.0808 5.46976 43.4558 5.19353 42.9404 4.64106C42.4251 4.08859 42.1675 3.4446 42.1675 2.70742C42.1675 1.97025 42.4235 1.28965 42.9404 0.773787C43.4558 0.257929 44.0808 0 44.8172 0C45.6267 0 46.28 0.257929 46.777 0.773787C47.2724 1.28965 47.5217 1.93364 47.5217 2.70742C47.5217 3.48121 47.2724 4.08859 46.777 4.64106C46.28 5.19353 45.6267 5.46976 44.8172 5.46976Z" fill="#F95D7F"/>
<path d="M46.8054 10.5669H42.8857V36.5362H46.8054V10.5669Z" fill="white"/>
<path d="M75.588 15.3175C74.7219 13.6967 73.5184 12.4087 71.9742 11.4502C70.4282 10.4934 68.6629 10.0142 66.6748 10.0142C64.6867 10.0142 62.903 10.4568 61.3205 11.3404C59.9475 12.1075 58.8271 13.1226 57.9527 14.3873V10.5666H54.0347V36.5359H57.9527V21.2299C57.9527 19.7572 58.2852 18.4493 58.9468 17.3061C59.6083 16.1645 60.511 15.2709 61.6513 14.6269C62.7916 13.9829 64.0982 13.6601 65.5693 13.6601C67.7769 13.6601 69.5622 14.3707 70.9236 15.7884C72.285 17.2062 72.9666 19.0383 72.9666 21.2848V36.5343H76.8846V20.6225C76.8846 18.7072 76.4524 16.94 75.588 15.3175Z" fill="white"/>
<path d="M105.421 36.5359L91.8967 23.0987L104.868 10.5666H100.067L87.4268 22.8441V0.221191H83.5088V36.5359H87.4268V23.6079L100.286 36.5359H105.421Z" fill="white"/>
<path d="M160.172 10.5669V14.7936C160.101 14.6821 160.027 14.5706 159.951 14.4625C158.957 13.0447 157.669 11.9481 156.088 11.176C154.505 10.4022 152.702 10.0161 150.679 10.0161C148.287 10.0161 146.134 10.5869 144.221 11.7284C142.307 12.87 140.8 14.4275 139.694 16.3978C138.59 18.368 138.039 20.6062 138.039 23.1106C138.039 25.615 138.59 27.8615 139.694 29.8517C140.798 31.8419 142.307 33.4078 144.221 34.5477C146.134 35.6892 148.305 36.26 150.734 36.26C152.72 36.26 154.495 35.8639 156.06 35.0718C157.624 34.2798 158.902 33.1748 159.896 31.757C159.993 31.6189 160.082 31.4775 160.172 31.3344V35.4862C160.172 38.2119 159.306 40.3669 157.577 41.9511C155.847 43.5336 153.493 44.3257 150.512 44.3257C148.415 44.3257 146.574 43.9396 144.994 43.1658C143.411 42.392 142.105 41.3054 141.074 39.9059L138.536 42.4469C139.786 44.2158 141.433 45.587 143.476 46.5638C145.519 47.539 147.844 48.0282 150.458 48.0282C153.071 48.0282 155.516 47.504 157.577 46.454C159.637 45.404 161.238 43.9396 162.38 42.0609C163.52 40.1822 164.09 37.9906 164.09 35.4862V10.5669H160.172ZM159.288 28.1094C158.551 29.5272 157.502 30.6238 156.141 31.3959C154.78 32.1697 153.215 32.5558 151.45 32.5558C149.685 32.5558 147.991 32.1597 146.593 31.3676C145.193 30.5756 144.089 29.4606 143.281 28.0246C142.472 26.5885 142.068 24.9494 142.068 23.1073C142.068 21.2651 142.464 19.636 143.255 18.2166C144.046 16.7988 145.15 15.6939 146.566 14.9018C147.982 14.1097 149.592 13.7137 151.395 13.7137C153.199 13.7137 154.771 14.1097 156.114 14.9018C157.458 15.6955 158.506 16.7988 159.261 18.2166C160.016 19.6344 160.393 21.2651 160.393 23.1073C160.393 24.9494 160.024 26.69 159.289 28.1078L159.288 28.1094Z" fill="white"/>
<path d="M193.538 16.0632C192.489 14.1678 191.054 12.6852 189.233 11.6152C187.411 10.5469 185.305 10.0127 182.913 10.0127C180.52 10.0127 178.147 10.6018 176.124 11.7816C174.101 12.9597 172.508 14.5706 171.35 16.6157C170.191 18.6591 169.611 20.9522 169.611 23.4932C169.611 26.0343 170.209 28.3939 171.404 30.4557C172.6 32.5191 174.229 34.1382 176.29 35.318C178.35 36.4979 180.668 37.0869 183.243 37.0869C185.305 37.0869 187.236 36.7009 189.04 35.9271C190.842 35.1533 192.351 34.0301 193.566 32.5574L191.028 30.0163C190.109 31.1579 188.985 32.0149 187.662 32.5856C186.337 33.1564 184.902 33.4426 183.356 33.4426C181.405 33.4426 179.684 33.02 178.195 32.1713C176.706 31.3243 175.545 30.1461 174.717 28.6352C174.119 27.5452 173.738 26.3288 173.572 24.9876H194.835C194.944 24.4717 195.019 24.0207 195.056 23.633C195.092 23.2453 195.11 22.9058 195.11 22.6113C195.11 20.1435 194.587 17.9619 193.538 16.0632ZM177.946 14.8484C179.344 14.0197 180.981 13.6054 182.858 13.6054C184.625 13.6054 186.141 13.9931 187.411 14.7652C188.681 15.539 189.655 16.6157 190.336 17.9968C190.867 19.0702 191.174 20.2966 191.271 21.6711H173.589C173.757 20.4197 174.111 19.2848 174.661 18.2731C175.452 16.8187 176.546 15.6755 177.946 14.8468V14.8484Z" fill="white"/>
<path d="M133.241 37.0285H119.727C112.261 37.0285 106.189 30.9497 106.189 23.4764C106.189 16.0031 112.263 9.92432 119.727 9.92432C127.19 9.92432 133.264 16.0031 133.264 23.4764L133.241 37.0285ZM119.727 13.4405C114.198 13.4405 109.7 17.9434 109.7 23.4764C109.7 29.0094 114.198 33.514 119.727 33.514H129.735L129.752 23.4747C129.752 17.9417 125.254 13.4405 119.725 13.4405H119.727Z" fill="#F95D7F"/>
<path d="M119.674 25.3665C120.653 25.3665 121.447 24.5716 121.447 23.591C121.447 22.6104 120.653 21.8154 119.674 21.8154C118.694 21.8154 117.9 22.6104 117.9 23.591C117.9 24.5716 118.694 25.3665 119.674 25.3665Z" fill="white"/>
<path d="M114.436 25.3665C115.415 25.3665 116.209 24.5716 116.209 23.591C116.209 22.6104 115.415 21.8154 114.436 21.8154C113.456 21.8154 112.662 22.6104 112.662 23.591C112.662 24.5716 113.456 25.3665 114.436 25.3665Z" fill="white"/>
<path d="M124.911 25.3665C125.891 25.3665 126.685 24.5716 126.685 23.591C126.685 22.6104 125.891 21.8154 124.911 21.8154C123.932 21.8154 123.138 22.6104 123.138 23.591C123.138 24.5716 123.932 25.3665 124.911 25.3665Z" fill="white"/>
</svg>
