<svg width="20" height="20" viewBox="0 0 20 20" fill="none" xmlns="http://www.w3.org/2000/svg">
<path d="M19.9998 9.19059V20H9.80566V5.68628L19.9998 9.19059Z" fill="#E1EBF0"/>
<path d="M20.0001 9.19059L16.9338 5.68628H13.9897V12.3844L20.0001 9.19059Z" fill="#9BB9C3"/>
<path d="M9.80588 5.68628V20H0V9.19059L9.80588 5.68628Z" fill="#E1EBF0"/>
<path d="M0 9.19048L9.80588 14.1175V4.90186H3.72463L0 9.19048Z" fill="#B4D2D7"/>
<path d="M17.2547 0V11.1384L9.99547 14.9839L9.80566 14.8941V0L17.2547 0Z" fill="#FFDA44"/>
<path d="M9.8059 0V14.8941L2.74512 11.5486V0H9.8059Z" fill="#FFDA44"/>
<path d="M13.039 10.5883C12.0119 10.5883 11.1763 9.75264 11.1763 8.72554C11.1763 7.69844 12.0119 6.86279 13.039 6.86279C14.0661 6.86279 14.9018 7.69844 14.9018 8.72554C14.9018 9.75264 14.0661 10.5883 13.039 10.5883ZM13.039 8.03926C12.6606 8.03926 12.3527 8.34715 12.3527 8.72554C12.3527 9.10393 12.6606 9.41181 13.039 9.41181C13.4174 9.41181 13.7253 9.10393 13.7253 8.72554C13.7253 8.34715 13.4174 8.03926 13.039 8.03926Z" fill="#FF9F22"/>
<path d="M6.96089 6.07852C5.93379 6.07852 5.09814 5.24287 5.09814 4.21577C5.09814 3.18867 5.93379 2.35303 6.96089 2.35303C7.98799 2.35303 8.82363 3.18867 8.82363 4.21577C8.82363 5.24287 7.98799 6.07852 6.96089 6.07852ZM6.96089 3.5295C6.5825 3.5295 6.27462 3.83738 6.27462 4.21577C6.27462 4.59416 6.5825 4.90205 6.96089 4.90205C7.33928 4.90205 7.64716 4.59416 7.64716 4.21577C7.64716 3.83738 7.33928 3.5295 6.96089 3.5295Z" fill="#FF9F22"/>
<path d="M14.1464 3.15565L9.80566 7.61055V5.92506L13.3041 2.33447L14.1464 3.15565Z" fill="#FF9F22"/>
<path d="M9.80579 5.92505V7.61054L6.89167 10.6015L6.04932 9.78034L9.80579 5.92505Z" fill="#FF9F22"/>
<path d="M19.9998 9.76559L11.0849 14.5013L19.9998 19.0519V20.0001H19.27L9.81704 15.175L9.80566 15.1809V13.8483L9.80606 13.8487L19.5472 8.67383L19.9998 9.19069V9.76559Z" fill="#B4D2D7"/>
<path d="M9.80588 13.8483V15.1809L0.734902 20.0001H0V19.0581L8.53843 14.5224L0 10.164V9.19068L0.210196 8.95068L9.80588 13.8483Z" fill="#B4D2D7"/>
</svg>
