<svg width="14" height="21" viewBox="0 0 14 21" fill="none" xmlns="http://www.w3.org/2000/svg">
<g clip-path="url(#clip0_374_722)">
<path d="M10.8848 18.83C10.8848 18.83 10.7291 18.83 10.6772 18.7958C10.2618 18.7445 9.93304 18.5566 9.67346 18.2319C9.43119 17.9243 9.32736 17.5313 9.37927 17.1042L10.7118 7.72337L11.0925 2.32386C11.1444 1.91377 11.3348 1.57203 11.629 1.31572C11.9405 1.05942 12.3039 0.939807 12.7192 0.973981C13.1345 1.00816 13.4287 1.16194 13.6018 1.45242C13.7748 1.7429 13.844 2.1359 13.8267 2.63143C13.8267 3.12695 13.8267 3.48578 13.9133 3.70791C13.9825 3.93004 14.0171 4.18635 14.0171 4.49392L13.896 6.21971C13.844 6.98863 13.7921 7.58667 13.7229 8.03094L12.3904 17.5484C12.3385 17.9414 12.1654 18.249 11.8885 18.4711C11.6117 18.7104 11.2829 18.83 10.8848 18.8641V18.83Z" fill="#EDC0A2"/>
<path d="M9.96792 19.5305H9.72564C9.31031 19.4451 8.98151 19.2401 8.73924 18.9154C8.49696 18.5908 8.41044 18.2148 8.46235 17.8047L10.0025 8.62899L9.76025 7.6892C9.62181 7.27912 9.44876 6.81776 9.2584 6.33933C8.86038 5.39954 8.53158 4.45975 8.25469 3.50287L7.75284 1.89669C7.649 1.4866 7.68361 1.11069 7.87397 0.768944C8.06433 0.427203 8.35852 0.205071 8.77385 0.0854614C9.17187 -0.017061 9.48337 0.0342002 9.70834 0.273419C9.93331 0.512638 10.1237 0.786031 10.2794 1.11069C10.4352 1.43534 10.6082 1.74291 10.8159 2.03339C11.0235 2.32387 11.162 2.59726 11.2485 2.87065L11.5773 3.98131C11.6811 4.30597 11.8369 4.71606 12.0272 5.17741C12.6675 6.80068 13.0137 7.91134 13.0656 8.50938C13.031 9.19287 12.7714 10.9187 12.2695 13.6526L11.4389 18.3003C11.3523 18.6591 11.1793 18.9496 10.9024 19.1888C10.6255 19.428 10.2967 19.5305 9.95061 19.5305H9.96792Z" fill="#F2C7AA"/>
<path d="M13.7925 14.1309C13.7925 15.0707 13.6887 15.9934 13.4637 16.9332C13.2388 17.873 12.8061 18.659 12.1658 19.3254C11.4736 20.043 10.643 20.5044 9.69117 20.7094C8.73938 20.9144 7.52801 21.017 6.09167 21.017C5.34754 20.9828 4.55149 20.7778 3.73814 20.3848C2.92479 19.9917 2.19797 19.4791 1.59228 18.8469C1.40193 18.5735 1.26348 18.2318 1.17696 17.8388C1.09043 17.4458 1.0039 17.0869 0.882766 16.7965C0.57127 16.2497 0.380912 15.7542 0.27708 15.3099C0.173248 14.8656 0.380912 14.5239 0.900071 14.2847C1.41923 14.0454 1.93839 14.0113 2.45755 14.1992C2.97671 14.3872 3.39204 14.746 3.66892 15.2757C3.94581 15.8567 4.37844 16.2839 4.98413 16.5572C5.58981 16.8306 6.1955 16.8819 6.83579 16.7281C7.57992 16.506 8.13369 16.0788 8.4971 15.4466C8.86052 14.8144 8.94704 14.1309 8.73938 13.4132C8.54902 12.6785 8.13369 12.0804 7.5107 11.5849C6.88771 11.0894 6.2128 10.8843 5.48598 10.9698L3.2709 12.6956C2.73443 13.0202 2.18066 13.174 1.60959 13.1227C1.02121 13.0886 0.588575 12.8152 0.27708 12.3367C-0.034416 11.8583 -0.0863319 11.4653 0.0867212 11.1577C0.259774 10.8502 0.467438 10.5939 0.709713 10.3717C0.951987 10.1496 1.14235 9.91038 1.29809 9.63699C1.45384 9.3636 1.59228 9.12438 1.73073 8.93642C2.00761 8.61176 2.40563 8.3042 2.92479 8.01372C3.44395 7.72324 3.9112 7.53528 4.32652 7.44984C4.96682 7.34732 5.58981 7.27897 6.1955 7.26189C6.80118 7.26189 7.38956 7.31315 7.94334 7.44984L7.56262 7.00558L3.79006 3.38312C3.46126 3.0243 3.2882 2.63129 3.2709 2.20412C3.2709 1.77694 3.40934 1.40102 3.75545 1.09346C4.08425 0.78589 4.44766 0.717542 4.84568 0.888413C5.2264 1.05928 5.58981 1.24724 5.884 1.41811C6.1955 1.58898 6.47238 1.72568 6.73196 1.8282C6.99154 1.93072 7.28573 2.11868 7.57992 2.42625L10.0373 4.76718C10.3661 5.04057 11.041 5.96327 12.062 7.51819C13.083 9.0902 13.6368 10.8331 13.7579 12.781V13.2765C13.7925 13.5499 13.7925 13.8233 13.7925 14.0967V14.1309Z" fill="#FFD3B6"/>
</g>
<defs>
<clipPath id="clip0_374_722">
<rect width="14" height="21" fill="white"/>
</clipPath>
</defs>
</svg>
