<svg width="62" height="62" viewBox="0 0 62 62" fill="none" xmlns="http://www.w3.org/2000/svg">
<path d="M23.6428 19.9171C23.6428 9.74562 31.8884 1.5 42.0599 1.5C52.2361 1.5 60.4898 9.74458 60.4962 19.9198C60.5044 33.1467 60.4996 44.5213 60.479 60.5H53.1428C36.8504 60.5 23.6428 47.2924 23.6428 31L23.6428 19.9171Z" stroke="#2951D1" stroke-width="3"/>
<mask id="mask0_340_8867" style="mask-type:alpha" maskUnits="userSpaceOnUse" x="0" y="22" width="62" height="40">
<path d="M0 22.1431H22.1429V27.4574H24.8V22.1431L62 22.1431V62.0002H0V22.1431Z" fill="#D9D9D9"/>
</mask>
<g mask="url(#mask0_340_8867)">
<path d="M19.9171 23.6431C9.74562 23.6431 1.5 31.8887 1.5 42.0602C1.5 52.2364 9.74458 60.4901 19.9198 60.4964C33.1467 60.5046 44.5213 60.4999 60.5 60.4793L60.5 53.1431C60.5 36.8507 47.2924 23.6431 31 23.6431L19.9171 23.6431Z" stroke="#F95D7F" stroke-width="3"/>
</g>
</svg>
