<svg width="21" height="21" viewBox="0 0 21 21" fill="none" xmlns="http://www.w3.org/2000/svg">
    <path fill-rule="evenodd" clip-rule="evenodd"
          d="M6.37427 14.7H5.68423L1.79204 18.5922C1.49181 18.8925 1.04048 18.983 0.647714 18.8201C0.254951 18.6572 0 18.2743 0 17.85V5.77479C0 2.58495 2.58495 0 5.77479 0H13.1246C16.3134 0 18.8994 2.58495 18.8994 5.77479V8.50789C20.1982 9.83383 20.9995 11.6485 20.9995 13.6497C20.9995 17.7058 17.7058 20.9995 13.6497 20.9995C9.94949 20.9995 6.88466 18.259 6.37427 14.6996V14.7ZM13.6497 8.4001C16.5467 8.4001 18.8999 10.7522 18.8999 13.6502C18.8999 16.5482 16.5467 18.9003 13.6497 18.9003C10.7527 18.9003 8.39961 16.5472 8.39961 13.6502C8.39961 10.7532 10.7518 8.4001 13.6497 8.4001ZM10.8118 14.3978C10.7143 14.3014 10.6341 14.1837 10.58 14.0523C10.4171 13.6596 10.5076 13.2082 10.8079 12.908L12.908 10.8079C13.3175 10.3974 13.9834 10.3974 14.3929 10.8079C14.8024 11.2174 14.8024 11.8833 14.3929 12.2928L14.0853 12.6004H15.7504C16.3302 12.6004 16.8002 13.0709 16.8002 13.6502C16.8002 14.2295 16.3297 14.7 15.7504 14.7H14.0853L14.3929 15.0077C14.8024 15.4172 14.8024 16.0831 14.3929 16.4926C13.9834 16.9021 13.3175 16.9021 12.908 16.4926L10.8123 14.3978H10.8118ZM16.7997 7.0082V5.77528C16.7997 3.74552 15.1543 2.10015 13.1246 2.10015H5.77479C3.74503 2.10015 2.09966 3.74552 2.09966 5.77528V15.3153L4.50742 12.9075C4.7038 12.7102 4.97056 12.5999 5.24963 12.5999H6.37427C6.88466 9.03944 9.94949 6.29995 13.6497 6.29995C14.7763 6.29995 15.8444 6.55392 16.7997 7.00771V7.0082Z"
          fill="#F6F749"/>
</svg>
