<svg width="24" height="24" viewBox="0 0 24 24" fill="none" xmlns="http://www.w3.org/2000/svg">
<g clip-path="url(#clip0_340_8923)">
<path fill-rule="evenodd" clip-rule="evenodd" d="M8.12396 6.56295L15.4357 0.667159C16.2278 0.0286968 17.2901 -0.167061 18.2594 0.147389C19.2269 0.460714 19.9711 1.24318 20.2345 2.22366C21.2106 5.85474 22.9415 12.2967 23.8983 15.8564C24.1561 16.8138 23.9226 17.8353 23.276 18.5863C22.6295 19.339 21.6523 19.7226 20.6644 19.6157L11.3911 18.6026L10.3333 18.8844L11.3793 22.4879C11.5513 23.1275 11.1699 23.7862 10.5285 23.9578C9.88701 24.1294 9.22636 23.7491 9.05429 23.1095L7.96487 19.3451C7.38941 19.3198 6.8241 19.1578 6.31578 18.8664C5.80746 18.575 5.38546 18.1667 5.07629 17.6818L4.16176 17.9265C3.39166 18.1329 2.57079 18.0249 1.87855 17.6266C1.18743 17.2295 0.683623 16.5742 0.476571 15.8052C0.356402 15.354 0.224949 14.8692 0.10478 14.418C-0.102272 13.6502 0.00604922 12.8306 0.405485 12.1415C0.803793 11.4524 1.46106 10.9501 2.23228 10.7436L3.14568 10.5C3.17107 9.92627 3.33355 9.36262 3.6258 8.85579C4.10478 8.02888 4.89293 7.4253 5.81874 7.17835L8.12453 6.56295H8.12396ZM12.2475 16.2822L20.9262 17.2301C21.1237 17.2503 21.3183 17.1738 21.4486 17.0236C21.5773 16.8734 21.6241 16.6698 21.5728 16.4774C20.6159 12.9166 18.885 6.4752 17.909 2.84468C17.8571 2.6478 17.7082 2.49198 17.5141 2.42954C17.3206 2.36598 17.1084 2.40535 16.9494 2.53248L10.0467 8.09807L12.247 16.2811L12.2475 16.2822ZM7.83172 9.12637L6.44046 9.49707C6.13242 9.57976 5.87008 9.7817 5.70986 10.0562C5.54963 10.3324 5.50788 10.6598 5.58969 10.9669L6.95838 16.06C7.04131 16.3671 7.24385 16.6287 7.51917 16.7885C7.79618 16.9482 8.12453 16.9915 8.43257 16.9083L9.82382 16.5365L7.83172 9.12637ZM3.60661 12.8621L2.85344 13.0623C2.69942 13.1045 2.56797 13.2041 2.48898 13.3419C2.40831 13.4797 2.38687 13.6445 2.42862 13.7981C2.54879 14.2481 2.68024 14.7341 2.80041 15.1853C2.84272 15.3389 2.94258 15.4699 3.0808 15.5487C3.21903 15.6274 3.38433 15.6494 3.53835 15.6089L4.29039 15.4075L3.60661 12.8621Z" fill="#F6F749"/>
</g>
<defs>
<clipPath id="clip0_340_8923">
<rect width="24" height="24" fill="white"/>
</clipPath>
</defs>
</svg>
