<svg width="62" height="62" viewBox="0 0 62 62" fill="none" xmlns="http://www.w3.org/2000/svg">
<path d="M50.5738 62H11.8238C8.26398 62 5.36548 59.1015 5.36548 55.5417V6.45833C5.36548 2.8985 8.26398 0 11.8238 0H50.5738C54.1336 0 57.0321 2.8985 57.0321 6.45833V55.5417C57.0321 57.215 57.0321 60.5096 57.0321 62C55.6412 62 52.4603 62 50.5738 62ZM11.8238 2.58333C9.68739 2.58333 7.94881 4.32192 7.94881 6.45833V55.5417C7.94881 57.6781 9.68739 59.4167 11.8238 59.4167H50.5738C51.7188 59.4167 53.6539 59.4167 54.4488 59.4167C54.4488 58.4231 54.4488 56.5331 54.4488 55.5417V6.45833C54.4488 4.32192 52.7102 2.58333 50.5738 2.58333H11.8238Z" fill="#F95D7F"/>
<path d="M47.7918 54.2498H14.2084C13.4954 54.2498 12.9167 53.6712 12.9167 52.9582V21.9582C12.9167 21.2452 13.4954 20.6665 14.2084 20.6665H47.7918C48.5048 20.6665 49.0834 21.2452 49.0834 21.9582V52.9582C49.0834 53.6712 48.5048 54.2498 47.7918 54.2498ZM15.5001 51.6665H46.5001V23.2498H15.5001V51.6665Z" fill="#2951D1"/>
<path d="M24.5417 54.2498C23.8287 54.2498 23.25 53.6712 23.25 52.9582V21.9582C23.25 21.2452 23.8287 20.6665 24.5417 20.6665C25.2547 20.6665 25.8333 21.2452 25.8333 21.9582V52.9582C25.8333 53.6712 25.2547 54.2498 24.5417 54.2498Z" fill="#2951D1"/>
<path d="M47.7918 30.9998H14.2084C13.4954 30.9998 12.9167 30.4212 12.9167 29.7082C12.9167 28.9952 13.4954 28.4165 14.2084 28.4165H47.7918C48.5048 28.4165 49.0834 28.9952 49.0834 29.7082C49.0834 30.4212 48.5048 30.9998 47.7918 30.9998Z" fill="#2951D1"/>
<path d="M47.7918 38.7498H14.2084C13.4954 38.7498 12.9167 38.1712 12.9167 37.4582C12.9167 36.7452 13.4954 36.1665 14.2084 36.1665H47.7918C48.5048 36.1665 49.0834 36.7452 49.0834 37.4582C49.0834 38.1712 48.5048 38.7498 47.7918 38.7498Z" fill="#2951D1"/>
<path d="M47.7918 46.4998H14.2084C13.4954 46.4998 12.9167 45.9212 12.9167 45.2082C12.9167 44.4952 13.4954 43.9165 14.2084 43.9165H47.7918C48.5048 43.9165 49.0834 44.4952 49.0834 45.2082C49.0834 45.9212 48.5048 46.4998 47.7918 46.4998Z" fill="#2951D1"/>
</svg>
