<svg width="22" height="18" viewBox="0 0 22 18" fill="none" xmlns="http://www.w3.org/2000/svg">
<path d="M0.322908 16.0106C2.38113 17.3123 4.77652 18 7.24972 18C10.8715 18 14.1904 16.6134 16.596 14.096C18.8978 11.6866 20.1641 8.44908 20.1011 5.16358C20.9737 4.41952 22 2.99879 22 1.61406C22 1.08325 21.422 0.7463 20.9533 1.01678C20.1335 1.49682 19.386 1.62237 18.6172 1.40728C17.0471 -0.117769 14.7101 -0.439026 12.7408 0.618905C11.0197 1.54206 10.0629 3.23142 10.149 5.07773C7.24139 4.72416 4.55514 3.27112 2.68217 1.01309C2.37465 0.644754 1.79108 0.688142 1.54654 1.10541C0.644332 2.64522 0.653594 4.42967 1.43816 5.87071C1.06487 5.93626 0.834221 6.24921 0.834221 6.588C0.834221 8.03643 1.48818 9.36761 2.54138 10.276C2.345 10.4643 2.28016 10.744 2.36353 10.9933C2.82668 12.3799 3.87524 13.4636 5.18594 14.0064C3.76038 14.685 2.18383 14.9111 0.780496 14.7394C0.0542832 14.6416 -0.304192 15.6146 0.322908 16.0106ZM7.43961 14.2437C7.95926 13.8458 7.68323 13.0168 7.03112 13.003C5.88251 12.979 4.83673 12.4149 4.18555 11.5278C4.49956 11.5075 4.82469 11.4595 5.13407 11.3764C5.83898 11.1862 5.80563 10.1726 5.08961 10.0295C3.79002 9.76918 2.77017 8.82572 2.38761 7.61086C2.73683 7.69671 3.09252 7.74471 3.44729 7.75117C4.15035 7.75487 4.41619 6.85664 3.84282 6.48092C2.55064 5.63254 1.9995 4.13427 2.36446 2.72554C4.6209 5.00387 7.6823 6.3766 10.9206 6.53169C11.3847 6.56031 11.733 6.1255 11.6311 5.68516C11.1911 3.78439 12.2563 2.45228 13.4003 1.83839C14.5322 1.22911 16.3496 1.03894 17.7428 2.49567C18.1568 2.93048 19.5537 2.94709 20.2641 2.78185C19.9455 3.38005 19.4555 3.94779 18.997 4.2672C18.8015 4.40383 18.6894 4.63092 18.7015 4.86817C18.8506 7.90072 17.7168 10.9157 15.591 13.1396C13.4494 15.3801 10.488 16.6144 7.25065 16.6144C5.9631 16.6144 4.70057 16.4057 3.5075 16.0032C4.93399 15.7281 6.28916 15.1262 7.43961 14.2437Z" fill="#F6F749"/>
</svg>
